<?xml version="1.0" encoding="UTF-8" standalone="no"?>
<!-- Created with Inkscape (http://www.inkscape.org/) -->

<svg
   xmlns:dc="http://purl.org/dc/elements/1.1/"
   xmlns:cc="http://creativecommons.org/ns#"
   xmlns:rdf="http://www.w3.org/1999/02/22-rdf-syntax-ns#"
   xmlns:svg="http://www.w3.org/2000/svg"
   xmlns="http://www.w3.org/2000/svg"
   xmlns:sodipodi="http://sodipodi.sourceforge.net/DTD/sodipodi-0.dtd"
   xmlns:inkscape="http://www.inkscape.org/namespaces/inkscape"
   version="1.1"
   id="svg100463"
   xml:space="preserve"
   width="800"
   height="800"
   viewBox="0 0 800 800"
   sodipodi:docname="logo-custom-object-5-publicdomainvectors.org.svg"
   inkscape:version="0.92.4 (5da689c313, 2019-01-14)"><metadata
     id="metadata100469"><rdf:RDF><cc:Work
         rdf:about=""><dc:format>image/svg+xml</dc:format><dc:type
           rdf:resource="http://purl.org/dc/dcmitype/StillImage" /><dc:title></dc:title></cc:Work></rdf:RDF></metadata><defs
     id="defs100467"><clipPath
       clipPathUnits="userSpaceOnUse"
       id="clipPath100479"><path
         d="M 0,600 H 600 V 0 H 0 Z"
         id="path100477"
         inkscape:connector-curvature="0" /></clipPath><linearGradient
       x1="0"
       y1="0"
       x2="1"
       y2="0"
       gradientUnits="userSpaceOnUse"
       gradientTransform="matrix(242.88657,342.63678,342.63678,-242.88657,212.91064,88.197266)"
       spreadMethod="pad"
       id="linearGradient100503"><stop
         style="stop-opacity:1;stop-color:#1aaeec"
         offset="0"
         id="stop100493" /><stop
         style="stop-opacity:1;stop-color:#4253a7"
         offset="0.297753"
         id="stop100495" /><stop
         style="stop-opacity:1;stop-color:#e70c8d"
         offset="0.646067"
         id="stop100497" /><stop
         style="stop-opacity:1;stop-color:#e33c47"
         offset="0.955056"
         id="stop100499" /><stop
         style="stop-opacity:1;stop-color:#e33c47"
         offset="1"
         id="stop100501" /></linearGradient></defs><sodipodi:namedview
     pagecolor="#ffffff"
     bordercolor="#666666"
     borderopacity="1"
     objecttolerance="10"
     gridtolerance="10"
     guidetolerance="10"
     inkscape:pageopacity="0"
     inkscape:pageshadow="2"
     inkscape:window-width="797"
     inkscape:window-height="480"
     id="namedview100465"
     showgrid="false"
     inkscape:zoom="0.295"
     inkscape:cx="400"
     inkscape:cy="400"
     inkscape:window-x="0"
     inkscape:window-y="0"
     inkscape:window-maximized="0"
     inkscape:current-layer="g100471" /><g
     id="g100471"
     inkscape:groupmode="layer"
     inkscape:label="logo-custom-object-5-publicdomainvectors.org"
     transform="matrix(1.3333333,0,0,-1.3333333,0,800)"><g
       id="g100473"><g
         id="g100475"
         clip-path="url(#clipPath100479)"><g
           id="g100481"><g
             id="g100483"><g
               id="g100489"><g
                 id="g100491"><path
                   d="m 407.107,295.85 c -51.039,5.981 -96.729,54.627 -103.148,85.026 -4.206,-24.344 -6.102,-50.792 -6.119,-78.203 l 22.209,-10.269 c 45.238,-28.011 75.064,-54.08 86.357,-69.812 -61.996,14.252 -135.245,-7.612 -168.384,-26.68 30.701,41.211 95.675,56.455 125.208,46.817 -18.976,15.814 -40.935,30.679 -64.666,44.4 l -20,-14.104 c -46.875,-25.17 -84.362,-37.964 -103.635,-39.877 43.342,46.565 61.033,120.932 61.088,159.165 20.339,-47.194 1.055,-111.084 -22.06,-131.844 23.184,8.531 47.037,20.112 70.785,33.804 l -2.212,24.377 c 1.639,53.178 9.302,92.037 17.281,109.685 18.658,-60.817 74.212,-113.321 107.296,-132.485 M 305.901,537.091 c -25.786,-45.554 -40.541,-95.293 -47.45,-145.66 -8.34,14.049 -19.278,28.327 -33.54,40.489 2.934,-17.927 -15.035,-145.125 -147.212,-247.875 52.343,0.445 102.799,12.537 149.87,31.738 -7.997,-14.246 -14.892,-30.859 -18.295,-49.295 14.057,11.506 133.197,59.543 288.273,-3.55 -26.559,45.107 -62.254,82.755 -102.422,113.923 16.338,0.198 34.174,2.532 51.838,8.801 -16.994,6.424 -118.164,85.584 -141.062,251.429"
                   style="fill:url(#linearGradient100503);stroke:none"
                   id="path100505"
                   inkscape:connector-curvature="0" /></g></g></g></g></g></g></g></svg>