<?xml version="1.0" encoding="UTF-8" standalone="no"?>
<!-- Created with Inkscape (http://www.inkscape.org/) -->

<svg
   xmlns:dc="http://purl.org/dc/elements/1.1/"
   xmlns:cc="http://creativecommons.org/ns#"
   xmlns:rdf="http://www.w3.org/1999/02/22-rdf-syntax-ns#"
   xmlns:svg="http://www.w3.org/2000/svg"
   xmlns="http://www.w3.org/2000/svg"
   xmlns:sodipodi="http://sodipodi.sourceforge.net/DTD/sodipodi-0.dtd"
   xmlns:inkscape="http://www.inkscape.org/namespaces/inkscape"
   version="1.1"
   id="svg3492"
   xml:space="preserve"
   width="800"
   height="800"
   viewBox="0 0 800 800"
   sodipodi:docname="tiles-swirl-graphics.svg"
   inkscape:version="0.92.4 (5da689c313, 2019-01-14)"><metadata
     id="metadata3498"><rdf:RDF><cc:Work
         rdf:about=""><dc:format>image/svg+xml</dc:format><dc:type
           rdf:resource="http://purl.org/dc/dcmitype/StillImage" /><dc:title></dc:title></cc:Work></rdf:RDF></metadata><defs
     id="defs3496"><clipPath
       clipPathUnits="userSpaceOnUse"
       id="clipPath3508"><path
         d="M 0,600 H 600 V 0 H 0 Z"
         id="path3506"
         inkscape:connector-curvature="0" /></clipPath></defs><sodipodi:namedview
     pagecolor="#ffffff"
     bordercolor="#666666"
     borderopacity="1"
     objecttolerance="10"
     gridtolerance="10"
     guidetolerance="10"
     inkscape:pageopacity="0"
     inkscape:pageshadow="2"
     inkscape:window-width="1920"
     inkscape:window-height="1018"
     id="namedview3494"
     showgrid="false"
     inkscape:zoom="0.82658416"
     inkscape:cx="510.16949"
     inkscape:cy="367.79661"
     inkscape:window-x="-8"
     inkscape:window-y="-8"
     inkscape:window-maximized="1"
     inkscape:current-layer="g3500" /><g
     id="g3500"
     inkscape:groupmode="layer"
     inkscape:label="tiles-geometric-3-publicdomainvectors.org"
     transform="matrix(1.3333333,0,0,-1.3333333,0,800)"><g
       id="g3502"><g
         id="g3504"
         clip-path="url(#clipPath3508)"><path
           d="m 491.576,15.712 c 6.832,9.914 13.385,19.72 19.644,29.412 -3.212,3.309 -6.4,6.519 -9.592,9.615 -5.459,-9.129 -11.173,-18.362 -17.113,-27.717 2.411,-3.623 4.733,-7.413 7.061,-11.31"
           style="fill:#493357;fill-opacity:1;fill-rule:evenodd;stroke:none"
           id="path3510"
           inkscape:connector-curvature="0" /><path
           d="m 547.69,106.249 c 3.996,7.361 7.761,14.627 11.337,21.771 -5.262,1.747 -10.457,3.414 -15.581,5.031 -3.139,-6.772 -6.462,-13.643 -9.955,-20.616 4.677,-1.986 9.409,-4.047 14.199,-6.186"
           style="fill:#d17e9a;fill-opacity:1;fill-rule:evenodd;stroke:none"
           id="path3512"
           inkscape:connector-curvature="0" /><path
           d="m 581.205,178.712 c 2.532,6.844 4.808,13.548 6.807,20.11 -6.375,0.598 -12.654,1.171 -18.838,1.727 -1.794,-6.292 -3.832,-12.714 -6.101,-19.261 5.952,-0.834 11.995,-1.684 18.132,-2.576"
           style="fill:#5063b8;fill-opacity:1;fill-rule:evenodd;stroke:none"
           id="path3514"
           inkscape:connector-curvature="0" /><path
           d="m 597.08,238.851 c 0.747,5.327 1.229,10.529 1.483,15.584 -6.633,-0.041 -13.173,-0.07 -19.625,-0.112 -0.271,-4.926 -0.756,-9.982 -1.459,-15.16 6.442,-0.105 12.975,-0.206 19.601,-0.312"
           style="fill:#1f445b;fill-opacity:1;fill-rule:evenodd;stroke:none"
           id="path3516"
           inkscape:connector-curvature="0" /><path
           d="m 596.838,284.955 c -0.717,4.037 -1.654,7.943 -2.787,11.701 -6.307,-0.272 -12.544,-0.533 -18.71,-0.787 0.972,-3.736 1.764,-7.605 2.37,-11.594 6.299,0.22 12.675,0.444 19.127,0.68"
           style="fill:#6f7896;fill-opacity:1;fill-rule:evenodd;stroke:none"
           id="path3518"
           inkscape:connector-curvature="0" /><path
           d="m 583.857,319.273 c -1.866,2.988 -3.904,5.841 -6.073,8.565 -5.65,-0.248 -11.249,-0.477 -16.799,-0.692 1.941,-2.766 3.769,-5.644 5.417,-8.656 5.762,0.25 11.58,0.507 17.455,0.783"
           style="fill:#e558b3;fill-opacity:1;fill-rule:evenodd;stroke:none"
           id="path3520"
           inkscape:connector-curvature="0" /><path
           d="m 561.172,344.227 c -2.742,2.158 -5.588,4.212 -8.529,6.154 -4.847,-0.066 -9.659,-0.126 -14.437,-0.166 2.691,-2.011 5.288,-4.127 7.782,-6.346 5.023,0.099 10.084,0.221 15.184,0.358"
           style="fill:#c33580;fill-opacity:1;fill-rule:evenodd;stroke:none"
           id="path3522"
           inkscape:connector-curvature="0" /><path
           d="m 531.285,362.101 c -3.376,1.548 -6.826,3.004 -10.33,4.394 -4.021,0.16 -8.02,0.341 -11.994,0.539 3.262,-1.459 6.464,-2.992 9.585,-4.618 4.221,-0.121 8.466,-0.228 12.739,-0.315"
           style="fill:#46743b;fill-opacity:1;fill-rule:evenodd;stroke:none"
           id="path3524"
           inkscape:connector-curvature="0" /><path
           d="m 496.136,374.898 c -3.837,1.114 -7.718,2.172 -11.641,3.184 -3.245,0.406 -6.472,0.826 -9.681,1.266 3.697,-1.081 7.35,-2.212 10.951,-3.405 3.436,-0.368 6.892,-0.719 10.371,-1.045"
           style="fill:#da63b8;fill-opacity:1;fill-rule:evenodd;stroke:none"
           id="path3526"
           inkscape:connector-curvature="0" /><path
           d="m 457.155,384.301 c -3.649,0.736 -7.32,1.448 -11.013,2.139 -2.577,0.617 -5.135,1.252 -7.676,1.908 3.517,-0.745 7.011,-1.512 10.476,-2.312 2.72,-0.598 5.456,-1.179 8.213,-1.735"
           style="fill:#2a5c39;fill-opacity:1;fill-rule:evenodd;stroke:none"
           id="path3528"
           inkscape:connector-curvature="0" /><path
           d="m 416.985,391.451 c -4.411,0.714 -8.847,1.392 -13.304,2.075 -1.969,0.806 -3.919,1.633 -5.851,2.477 4.283,-0.731 8.542,-1.474 12.774,-2.238 2.112,-0.786 4.238,-1.558 6.381,-2.314"
           style="fill:#78787b;fill-opacity:1;fill-rule:evenodd;stroke:none"
           id="path3530"
           inkscape:connector-curvature="0" /><path
           d="m 373.045,398.058 c -4.615,0.666 -9.25,1.341 -13.902,2.019 -1.454,0.954 -2.87,1.948 -4.279,2.942 4.504,-0.714 8.987,-1.43 13.446,-2.152 1.558,-0.954 3.135,-1.894 4.735,-2.809"
           style="fill:#e38387;fill-opacity:1;fill-rule:evenodd;stroke:none"
           id="path3532"
           inkscape:connector-curvature="0" /><path
           d="m 327.25,404.819 c -4.795,0.74 -9.607,1.486 -14.437,2.255 -1.003,1.082 -1.978,2.186 -2.925,3.311 4.7,-0.8 9.382,-1.59 14.043,-2.361 1.073,-1.097 2.192,-2.153 3.319,-3.205"
           style="fill:#842a32;fill-opacity:1;fill-rule:evenodd;stroke:none"
           id="path3534"
           inkscape:connector-curvature="0" /><path
           d="m 434.106,-0.414 c -0.178,0.766 -0.363,1.525 -0.553,2.28 -0.395,-0.76 -0.791,-1.519 -1.19,-2.28 z"
           style="fill:#2b7141;fill-opacity:1;fill-rule:evenodd;stroke:none"
           id="path3536"
           inkscape:connector-curvature="0" /><path
           d="m 468.245,48.978 c 4.255,8.236 8.325,16.379 12.223,24.42 -3.073,2.479 -6.151,4.876 -9.235,7.178 -3.298,-7.622 -6.745,-15.342 -10.346,-23.151 2.482,-2.716 4.917,-5.548 7.358,-8.447"
           style="fill:#3a7371;fill-opacity:1;fill-rule:evenodd;stroke:none"
           id="path3538"
           inkscape:connector-curvature="0" /><path
           d="m 503.344,124.463 c 2.55,6.206 4.946,12.34 7.221,18.387 -4.646,1.305 -9.242,2.565 -13.791,3.782 -1.951,-5.763 -3.991,-11.611 -6.144,-17.529 4.197,-1.499 8.438,-3.036 12.714,-4.64"
           style="fill:#6c4f8e;fill-opacity:1;fill-rule:evenodd;stroke:none"
           id="path3540"
           inkscape:connector-curvature="0" /><path
           d="m 525.025,186.335 c 1.693,5.973 3.214,11.846 4.611,17.603 -5.563,0.462 -11.058,0.9 -16.488,1.319 -1.183,-5.56 -2.527,-11.213 -3.99,-16.963 5.226,-0.633 10.514,-1.284 15.867,-1.959"
           style="fill:#ec848b;fill-opacity:1;fill-rule:evenodd;stroke:none"
           id="path3542"
           inkscape:connector-curvature="0" /><path
           d="m 536.179,239.795 c 0.589,4.88 1.024,9.658 1.295,14.332 -5.864,-0.022 -11.658,-0.04 -17.388,-0.063 -0.263,-4.577 -0.651,-9.25 -1.186,-14.013 5.693,-0.084 11.452,-0.173 17.279,-0.256"
           style="fill:#941d92;fill-opacity:1;fill-rule:evenodd;stroke:none"
           id="path3544"
           inkscape:connector-curvature="0" /><path
           d="m 537.015,282.979 c -0.401,3.898 -0.928,7.701 -1.613,11.396 -5.689,-0.187 -11.324,-0.377 -16.906,-0.549 0.57,-3.682 1.016,-7.462 1.343,-11.327 5.669,0.145 11.393,0.311 17.176,0.48"
           style="fill:#b4246f;fill-opacity:1;fill-rule:evenodd;stroke:none"
           id="path3546"
           inkscape:connector-curvature="0" /><path
           d="m 528.862,317.066 c -1.249,3.053 -2.615,6.015 -4.112,8.867 -5.203,-0.148 -10.365,-0.275 -15.49,-0.392 1.302,-2.901 2.507,-5.891 3.605,-8.967 5.288,0.153 10.621,0.312 15.997,0.492"
           style="fill:#457463;fill-opacity:1;fill-rule:evenodd;stroke:none"
           id="path3548"
           inkscape:connector-curvature="0" /><path
           d="m 513.021,343.423 c -1.971,2.359 -4.053,4.617 -6.23,6.778 -4.54,0.038 -9.051,0.087 -13.534,0.153 1.962,-2.232 3.835,-4.556 5.594,-6.973 4.692,0 9.416,0.018 14.17,0.042"
           style="fill:#927a9c;fill-opacity:1;fill-rule:evenodd;stroke:none"
           id="path3550"
           inkscape:connector-curvature="0" /><path
           d="m 490.71,363.489 c -2.593,1.784 -5.258,3.495 -7.992,5.13 -3.807,0.272 -7.593,0.563 -11.36,0.873 2.509,-1.714 4.949,-3.501 7.315,-5.359 3.99,-0.231 8.002,-0.447 12.037,-0.644"
           style="fill:#425567;fill-opacity:1;fill-rule:evenodd;stroke:none"
           id="path3552"
           inkscape:connector-curvature="0" /><path
           d="m 463.039,378.684 c -3.093,1.358 -6.24,2.66 -9.44,3.905 -3.08,0.519 -6.144,1.062 -9.191,1.62 2.987,-1.313 5.915,-2.69 8.781,-4.132 3.267,-0.48 6.548,-0.952 9.85,-1.393"
           style="fill:#2171c2;fill-opacity:1;fill-rule:evenodd;stroke:none"
           id="path3554"
           inkscape:connector-curvature="0" /><path
           d="m 430.973,390.348 c -3.06,0.933 -6.157,1.822 -9.279,2.699 -2.428,0.741 -4.84,1.501 -7.236,2.278 2.949,-0.929 5.867,-1.883 8.748,-2.874 2.573,-0.72 5.16,-1.424 7.767,-2.103"
           style="fill:#af4567;fill-opacity:1;fill-rule:evenodd;stroke:none"
           id="path3556"
           inkscape:connector-curvature="0" /><path
           d="m 396.732,399.385 c -3.825,0.886 -7.678,1.763 -11.567,2.61 -1.821,0.93 -3.628,1.874 -5.407,2.857 3.712,-0.905 7.388,-1.831 11.028,-2.776 1.961,-0.921 3.943,-1.822 5.946,-2.691"
           style="fill:#dd8425;fill-opacity:1;fill-rule:evenodd;stroke:none"
           id="path3558"
           inkscape:connector-curvature="0" /><path
           d="m 358.171,407.604 c -4.108,0.816 -8.24,1.635 -12.401,2.446 -1.287,1.089 -2.559,2.188 -3.8,3.316 4.006,-0.854 7.984,-1.703 11.93,-2.574 1.405,-1.079 2.825,-2.147 4.271,-3.188"
           style="fill:#e8854a;fill-opacity:1;fill-rule:evenodd;stroke:none"
           id="path3560"
           inkscape:connector-curvature="0" /><path
           d="m 317.021,415.637 c -4.354,0.854 -8.736,1.707 -13.138,2.584 -0.827,1.203 -1.633,2.421 -2.403,3.661 4.267,-0.906 8.511,-1.799 12.729,-2.679 0.909,-1.209 1.846,-2.4 2.812,-3.566"
           style="fill:#2f72ae;fill-opacity:1;fill-rule:evenodd;stroke:none"
           id="path3562"
           inkscape:connector-curvature="0" /><path
           d="m 417.251,1.226 c 3.174,7.858 6.225,15.64 9.168,23.333 -1.197,3.039 -2.456,5.994 -3.785,8.856 -2.327,-7.322 -4.757,-14.727 -7.295,-22.21 0.742,-3.231 1.374,-6.56 1.912,-9.979"
           style="fill:#a07486;fill-opacity:1;fill-rule:evenodd;stroke:none"
           id="path3564"
           inkscape:connector-curvature="0" /><path
           d="m 444.125,74.038 c 2.323,6.969 4.541,13.855 6.659,20.658 -2.986,1.893 -5.965,3.738 -8.955,5.5 -1.659,-6.483 -3.392,-13.047 -5.225,-19.686 2.536,-2.071 5.037,-4.236 7.521,-6.472"
           style="fill:#9a7ac1;fill-opacity:1;fill-rule:evenodd;stroke:none"
           id="path3566"
           inkscape:connector-curvature="0" /><path
           d="m 463.282,138.237 c 1.411,5.345 2.718,10.636 3.986,15.858 -4.211,1.008 -8.39,1.973 -12.532,2.916 -0.991,-5.012 -2.032,-10.08 -3.123,-15.207 3.866,-1.146 7.754,-2.334 11.669,-3.567"
           style="fill:#ec5349;fill-opacity:1;fill-rule:evenodd;stroke:none"
           id="path3568"
           inkscape:connector-curvature="0" /><path
           d="m 475.397,192.176 c 0.978,5.314 1.878,10.55 2.674,15.711 -4.984,0.348 -9.922,0.697 -14.81,1.038 -0.635,-5.006 -1.345,-10.08 -2.122,-15.225 4.708,-0.492 9.46,-0.997 14.258,-1.524"
           style="fill:#3d7344;fill-opacity:1;fill-rule:evenodd;stroke:none"
           id="path3570"
           inkscape:connector-curvature="0" /><path
           d="m 482.05,240.591 c 0.391,4.537 0.683,9 0.88,13.389 -5.298,-0.007 -10.548,-0.007 -15.75,-0.009 -0.171,-4.317 -0.419,-8.701 -0.722,-13.151 5.148,-0.073 10.346,-0.149 15.592,-0.229"
           style="fill:#307240;fill-opacity:1;fill-rule:evenodd;stroke:none"
           id="path3572"
           inkscape:connector-curvature="0" /><path
           d="m 482.938,281.622 c -0.208,3.812 -0.481,7.551 -0.864,11.215 -5.223,-0.121 -10.407,-0.233 -15.552,-0.337 0.302,-3.661 0.553,-7.388 0.698,-11.182 5.196,0.093 10.435,0.199 15.718,0.304"
           style="fill:#91767c;fill-opacity:1;fill-rule:evenodd;stroke:none"
           id="path3574"
           inkscape:connector-curvature="0" /><path
           d="m 478.191,315.769 c -0.784,3.14 -1.623,6.218 -2.581,9.211 -4.857,-0.053 -9.684,-0.086 -14.482,-0.111 0.806,-3.042 1.527,-6.152 2.177,-9.328 4.929,0.064 9.89,0.137 14.886,0.228"
           style="fill:#977bbf;fill-opacity:1;fill-rule:evenodd;stroke:none"
           id="path3576"
           inkscape:connector-curvature="0" /><path
           d="m 467.905,343.633 c -1.318,2.554 -2.748,5.024 -4.254,7.42 -4.296,0.141 -8.569,0.294 -12.821,0.47 1.319,-2.469 2.548,-5.014 3.696,-7.626 4.437,-0.103 8.896,-0.189 13.379,-0.264"
           style="fill:#ed219b;fill-opacity:1;fill-rule:evenodd;stroke:none"
           id="path3578"
           inkscape:connector-curvature="0" /><path
           d="m 452.261,365.958 c -1.873,2.033 -3.827,3.995 -5.851,5.888 -3.629,0.389 -7.242,0.798 -10.837,1.223 1.813,-1.975 3.557,-4.017 5.219,-6.129 3.805,-0.347 7.627,-0.677 11.469,-0.982"
           style="fill:#577240;fill-opacity:1;fill-rule:evenodd;stroke:none"
           id="path3580"
           inkscape:connector-curvature="0" /><path
           d="m 431.557,383.626 c -2.378,1.614 -4.822,3.164 -7.327,4.65 -2.934,0.65 -5.853,1.314 -8.754,2.004 2.293,-1.567 4.525,-3.191 6.684,-4.886 3.116,-0.61 6.248,-1.2 9.397,-1.768"
           style="fill:#ca61b7;fill-opacity:1;fill-rule:evenodd;stroke:none"
           id="path3582"
           inkscape:connector-curvature="0" /><path
           d="m 406.211,397.625 c -2.48,1.124 -4.998,2.215 -7.557,3.276 -2.29,0.867 -4.559,1.765 -6.81,2.687 2.382,-1.118 4.721,-2.273 7.022,-3.457 2.43,-0.865 4.881,-1.694 7.345,-2.506"
           style="fill:#5d776c;fill-opacity:1;fill-rule:evenodd;stroke:none"
           id="path3584"
           inkscape:connector-curvature="0" /><path
           d="m 377.905,408.593 c -3.222,1.08 -6.491,2.123 -9.8,3.148 -1.671,1.065 -3.317,2.163 -4.944,3.278 3.126,-1.076 6.209,-2.183 9.245,-3.315 1.815,-1.061 3.648,-2.099 5.499,-3.111"
           style="fill:#da482b;fill-opacity:1;fill-rule:evenodd;stroke:none"
           id="path3586"
           inkscape:connector-curvature="0" /><path
           d="m 344.842,418.421 c -3.58,0.967 -7.2,1.912 -10.852,2.857 -1.127,1.217 -2.22,2.459 -3.285,3.725 3.493,-0.979 6.946,-1.976 10.363,-2.98 1.237,-1.22 2.493,-2.422 3.774,-3.602"
           style="fill:#307296;fill-opacity:1;fill-rule:evenodd;stroke:none"
           id="path3588"
           inkscape:connector-curvature="0" /><path
           d="m 308.492,427.656 c -3.899,0.957 -7.83,1.916 -11.791,2.879 -0.64,1.329 -1.244,2.677 -1.833,4.038 3.823,-0.989 7.611,-1.977 11.366,-2.962 0.716,-1.342 1.475,-2.657 2.258,-3.955"
           style="fill:#3c60b3;fill-opacity:1;fill-rule:evenodd;stroke:none"
           id="path3590"
           inkscape:connector-curvature="0" /><path
           d="m 409.41,31.102 c 1.279,6.724 2.463,13.374 3.591,19.945 -1.516,2.388 -3.083,4.704 -4.703,6.945 -0.651,-6.272 -1.364,-12.619 -2.139,-19.041 1.143,-2.545 2.223,-5.163 3.251,-7.849"
           style="fill:#490e1c;fill-opacity:1;fill-rule:evenodd;stroke:none"
           id="path3592"
           inkscape:connector-curvature="0" /><path
           d="m 419.571,93.374 c 0.833,5.986 1.613,11.905 2.365,17.755 -2.911,1.49 -5.825,2.919 -8.74,4.302 -0.377,-5.604 -0.79,-11.269 -1.235,-16.997 2.549,-1.63 5.089,-3.314 7.61,-5.06"
           style="fill:#a37131;fill-opacity:1;fill-rule:evenodd;stroke:none"
           id="path3594"
           inkscape:connector-curvature="0" /><path
           d="m 426.266,148.899 c 0.473,4.688 0.932,9.329 1.367,13.922 -3.899,0.789 -7.774,1.555 -11.624,2.293 -0.21,-4.432 -0.418,-8.904 -0.658,-13.417 3.618,-0.906 7.256,-1.831 10.915,-2.798"
           style="fill:#ab8028;fill-opacity:1;fill-rule:evenodd;stroke:none"
           id="path3596"
           inkscape:connector-curvature="0" /><path
           d="m 430.45,196.762 c 0.349,4.807 0.674,9.561 0.95,14.26 -4.566,0.289 -9.096,0.569 -13.591,0.843 -0.152,-4.58 -0.291,-9.21 -0.455,-13.886 4.331,-0.394 8.696,-0.8 13.096,-1.217"
           style="fill:#ee8642;fill-opacity:1;fill-rule:evenodd;stroke:none"
           id="path3598"
           inkscape:connector-curvature="0" /><path
           d="m 432.861,241.327 c 0.148,4.281 0.261,8.511 0.334,12.686 -4.883,0.012 -9.728,0.028 -14.54,0.05 -0.033,-4.125 -0.079,-8.294 -0.146,-12.512 4.748,-0.077 9.531,-0.154 14.352,-0.224"
           style="fill:#b93345;fill-opacity:1;fill-rule:evenodd;stroke:none"
           id="path3600"
           inkscape:connector-curvature="0" /><path
           d="m 433.154,280.822 c -0.092,3.767 -0.231,7.484 -0.409,11.145 -4.877,-0.056 -9.721,-0.103 -14.537,-0.139 0.139,-3.667 0.242,-7.384 0.315,-11.145 4.845,0.037 9.721,0.083 14.631,0.139"
           style="fill:#e72233;fill-opacity:1;fill-rule:evenodd;stroke:none"
           id="path3602"
           inkscape:connector-curvature="0" /><path
           d="m 430.813,315.313 c -0.393,3.26 -0.842,6.463 -1.354,9.61 -4.597,0.038 -9.169,0.093 -13.718,0.16 0.377,-3.201 0.73,-6.448 1.026,-9.745 4.657,-0.021 9.339,-0.029 14.046,-0.025"
           style="fill:#2a5aad;fill-opacity:1;fill-rule:evenodd;stroke:none"
           id="path3604"
           inkscape:connector-curvature="0" /><path
           d="m 425.153,344.837 c -0.765,2.761 -1.599,5.464 -2.513,8.103 -4.106,0.251 -8.197,0.512 -12.268,0.794 0.734,-2.72 1.404,-5.496 2.013,-8.324 4.238,-0.206 8.494,-0.398 12.768,-0.573"
           style="fill:#d57f7d;fill-opacity:1;fill-rule:evenodd;stroke:none"
           id="path3606"
           inkscape:connector-curvature="0" /><path
           d="m 415.527,369.549 c -1.203,2.291 -2.486,4.519 -3.838,6.686 -3.485,0.509 -6.955,1.045 -10.412,1.599 1.145,-2.259 2.23,-4.572 3.237,-6.942 3.657,-0.468 7.327,-0.912 11.013,-1.343"
           style="fill:#75435f;fill-opacity:1;fill-rule:evenodd;stroke:none"
           id="path3608"
           inkscape:connector-curvature="0" /><path
           d="m 401.475,389.82 c -1.672,1.878 -3.426,3.688 -5.251,5.433 -2.804,0.786 -5.592,1.589 -8.365,2.427 1.613,-1.832 3.149,-3.73 4.614,-5.683 2.985,-0.75 5.987,-1.473 9.002,-2.177"
           style="fill:#284363;fill-opacity:1;fill-rule:evenodd;stroke:none"
           id="path3610"
           inkscape:connector-curvature="0" /><path
           d="m 382.805,406.261 c -1.888,1.333 -3.825,2.626 -5.813,3.872 -2.146,1.028 -4.278,2.074 -6.388,3.144 1.809,-1.308 3.561,-2.668 5.266,-4.062 2.297,-1.006 4.607,-1.993 6.935,-2.954"
           style="fill:#2671be;fill-opacity:1;fill-rule:evenodd;stroke:none"
           id="path3612"
           inkscape:connector-curvature="0" /><path
           d="m 360.553,419.213 c -2.606,1.269 -5.266,2.498 -7.978,3.69 -1.511,1.223 -2.997,2.469 -4.457,3.743 2.522,-1.247 4.991,-2.532 7.402,-3.857 1.653,-1.221 3.334,-2.408 5.033,-3.576"
           style="fill:#7a7981;fill-opacity:1;fill-rule:evenodd;stroke:none"
           id="path3614"
           inkscape:connector-curvature="0" /><path
           d="m 333.178,430.631 c -3.036,1.098 -6.117,2.179 -9.24,3.247 -0.936,1.369 -1.85,2.755 -2.719,4.173 2.956,-1.1 5.868,-2.217 8.728,-3.362 1.054,-1.372 2.122,-2.732 3.231,-4.058"
           style="fill:#40743e;fill-opacity:1;fill-rule:evenodd;stroke:none"
           id="path3616"
           inkscape:connector-curvature="0" /><path
           d="m 301.829,440.969 c -3.422,1.056 -6.889,2.086 -10.39,3.129 -0.438,1.46 -0.841,2.938 -1.203,4.435 3.356,-1.064 6.674,-2.121 9.947,-3.191 0.516,-1.476 1.072,-2.931 1.646,-4.373"
           style="fill:#dd8344;fill-opacity:1;fill-rule:evenodd;stroke:none"
           id="path3618"
           inkscape:connector-curvature="0" /><path
           d="m 398.45,-0.414 c 0.065,4.702 0.091,9.357 0.089,13.967 -0.326,2.398 -0.694,4.755 -1.157,7.054 0.406,-6.177 0.759,-12.443 1.04,-18.797 0.016,-0.738 0.023,-1.479 0.026,-2.224 z"
           style="fill:#a87f34;fill-opacity:1;fill-rule:evenodd;stroke:none"
           id="path3620"
           inkscape:connector-curvature="0" /><path
           d="m 397.697,54.718 c -0.219,5.807 -0.482,11.543 -0.758,17.211 -1.533,1.661 -3.088,3.284 -4.669,4.862 0.61,-5.456 1.196,-10.979 1.765,-16.566 1.253,-1.793 2.485,-3.621 3.662,-5.507"
           style="fill:#dd8258;fill-opacity:1;fill-rule:evenodd;stroke:none"
           id="path3622"
           inkscape:connector-curvature="0" /><path
           d="m 394.779,108.577 c -0.338,5.209 -0.688,10.367 -1.045,15.476 -2.501,1.031 -5.004,2.025 -7.504,3.003 0.618,-4.935 1.228,-9.915 1.848,-14.946 2.239,-1.143 4.473,-2.322 6.701,-3.533"
           style="fill:#406b80;fill-opacity:1;fill-rule:evenodd;stroke:none"
           id="path3624"
           inkscape:connector-curvature="0" /><path
           d="m 391.454,157.312 c -0.271,4.167 -0.546,8.304 -0.805,12.413 -3.216,0.551 -6.416,1.089 -9.603,1.612 0.426,-3.996 0.873,-8.018 1.332,-12.066 3.014,-0.633 6.04,-1.289 9.076,-1.959"
           style="fill:#6f7937;fill-opacity:1;fill-rule:evenodd;stroke:none"
           id="path3626"
           inkscape:connector-curvature="0" /><path
           d="m 388.9,200.447 c -0.22,4.416 -0.42,8.797 -0.606,13.144 -3.73,0.212 -7.438,0.416 -11.127,0.616 0.309,-4.266 0.634,-8.562 1.003,-12.885 3.559,-0.285 7.136,-0.576 10.73,-0.875"
           style="fill:#5a72a5;fill-opacity:1;fill-rule:evenodd;stroke:none"
           id="path3628"
           inkscape:connector-curvature="0" /><path
           d="m 387.306,242.071 c -0.112,4.091 -0.202,8.149 -0.292,12.175 -4.004,0.029 -7.989,0.068 -11.954,0.102 0.134,-3.995 0.291,-8.018 0.471,-12.07 3.906,-0.068 7.83,-0.138 11.775,-0.207"
           style="fill:#705eaa;fill-opacity:1;fill-rule:evenodd;stroke:none"
           id="path3630"
           inkscape:connector-curvature="0" /><path
           d="m 386.567,280.546 c -0.053,3.762 -0.106,7.489 -0.165,11.181 -4.04,0.006 -8.063,0.017 -12.07,0.039 0.033,-3.704 0.068,-7.441 0.124,-11.208 4.02,-0.011 8.057,-0.014 12.111,-0.012"
           style="fill:#e83070;fill-opacity:1;fill-rule:evenodd;stroke:none"
           id="path3632"
           inkscape:connector-curvature="0" /><path
           d="m 385.913,315.669 c -0.105,3.398 -0.218,6.756 -0.355,10.074 -3.851,0.113 -7.691,0.236 -11.515,0.37 0.048,-3.366 0.084,-6.77 0.114,-10.211 3.906,-0.086 7.823,-0.167 11.756,-0.233"
           style="fill:#8c7b61;fill-opacity:1;fill-rule:evenodd;stroke:none"
           id="path3634"
           inkscape:connector-curvature="0" /><path
           d="m 384.201,347.052 c -0.267,2.994 -0.578,5.942 -0.935,8.844 -3.469,0.314 -6.93,0.642 -10.378,0.986 0.214,-2.976 0.392,-5.994 0.533,-9.056 3.583,-0.269 7.178,-0.529 10.78,-0.774"
           style="fill:#5d73ac;fill-opacity:1;fill-rule:evenodd;stroke:none"
           id="path3636"
           inkscape:connector-curvature="0" /><path
           d="m 380.159,374.337 c -0.573,2.564 -1.21,5.079 -1.901,7.542 -2.948,0.562 -5.884,1.15 -8.814,1.75 0.521,-2.546 0.978,-5.142 1.386,-7.785 3.1,-0.518 6.209,-1.024 9.329,-1.507"
           style="fill:#9f7b98;fill-opacity:1;fill-rule:evenodd;stroke:none"
           id="path3638"
           inkscape:connector-curvature="0" /><path
           d="m 372.618,397.391 c -0.985,2.141 -2.039,4.232 -3.169,6.262 -2.349,0.819 -4.685,1.665 -7.011,2.528 0.937,-2.112 1.801,-4.28 2.599,-6.497 2.514,-0.789 5.042,-1.55 7.581,-2.293"
           style="fill:#ec5eb6;fill-opacity:1;fill-rule:evenodd;stroke:none"
           id="path3640"
           inkscape:connector-curvature="0" /><path
           d="m 360.721,416.412 c -1.284,1.538 -2.621,3.04 -4.016,4.495 -1.757,1.04 -3.498,2.104 -5.221,3.188 1.23,-1.513 2.402,-3.07 3.516,-4.668 1.893,-1.027 3.801,-2.032 5.721,-3.015"
           style="fill:#c52d2d;fill-opacity:1;fill-rule:evenodd;stroke:none"
           id="path3642"
           inkscape:connector-curvature="0" /><path
           d="m 344.747,431.406 c -1.953,1.463 -3.981,2.869 -6.07,4.233 -1.171,1.218 -2.32,2.458 -3.445,3.72 1.914,-1.41 3.765,-2.866 5.539,-4.378 1.304,-1.214 2.63,-2.406 3.976,-3.575"
           style="fill:#967ac4;fill-opacity:1;fill-rule:evenodd;stroke:none"
           id="path3644"
           inkscape:connector-curvature="0" /><path
           d="m 323.337,444.375 c -2.457,1.237 -4.978,2.429 -7.547,3.604 -0.639,1.34 -1.261,2.692 -1.843,4.07 2.418,-1.199 4.778,-2.425 7.076,-3.691 0.742,-1.349 1.523,-2.672 2.314,-3.983"
           style="fill:#6c7582;fill-opacity:1;fill-rule:evenodd;stroke:none"
           id="path3646"
           inkscape:connector-curvature="0" /><path
           d="m 297.226,455.672 c -2.93,1.112 -5.906,2.213 -8.928,3.31 -0.184,1.401 -0.337,2.816 -0.453,4.244 2.889,-1.107 5.733,-2.218 8.523,-3.347 0.253,-1.417 0.54,-2.82 0.858,-4.207"
           style="fill:#39733e;fill-opacity:1;fill-rule:evenodd;stroke:none"
           id="path3648"
           inkscape:connector-curvature="0" /><path
           d="m 396.812,19.942 c -1.241,5.782 -2.545,11.471 -3.864,17.079 -0.795,2.249 -1.646,4.443 -2.565,6.581 1.693,-5.375 3.356,-10.831 4.984,-16.376 0.555,-2.372 1.033,-4.802 1.445,-7.284"
           style="fill:#e3843a;fill-opacity:1;fill-rule:evenodd;stroke:none"
           id="path3650"
           inkscape:connector-curvature="0" /><path
           d="m 383.819,72.994 c -1.36,5.079 -2.732,10.098 -4.094,15.064 -1.912,1.54 -3.835,3.049 -5.795,4.499 1.669,-4.766 3.343,-9.586 5.025,-14.46 1.651,-1.654 3.284,-3.348 4.864,-5.103"
           style="fill:#a07e2e;fill-opacity:1;fill-rule:evenodd;stroke:none"
           id="path3652"
           inkscape:connector-curvature="0" /><path
           d="m 370.807,120.296 c -1.263,4.61 -2.512,9.181 -3.723,13.72 -2.818,0.955 -5.633,1.887 -8.451,2.777 1.461,-4.38 2.955,-8.79 4.482,-13.232 2.573,-1.046 5.133,-2.141 7.692,-3.265"
           style="fill:#675d55;fill-opacity:1;fill-rule:evenodd;stroke:none"
           id="path3654"
           inkscape:connector-curvature="0" /><path
           d="m 359.507,163.822 c -0.901,3.771 -1.76,7.526 -2.592,11.263 -3.513,0.519 -7.013,1.019 -10.499,1.504 0.997,-3.638 2.036,-7.285 3.115,-10.946 3.314,-0.594 6.639,-1.195 9.976,-1.821"
           style="fill:#3b73c2;fill-opacity:1;fill-rule:evenodd;stroke:none"
           id="path3656"
           inkscape:connector-curvature="0" /><path
           d="m 351.297,203.376 c -0.716,4.117 -1.373,8.219 -1.984,12.308 -4.043,0.206 -8.068,0.408 -12.075,0.611 0.733,-4.021 1.544,-8.045 2.407,-12.08 3.866,-0.277 7.75,-0.556 11.652,-0.839"
           style="fill:#473d9e;fill-opacity:1;fill-rule:evenodd;stroke:none"
           id="path3658"
           inkscape:connector-curvature="0" /><path
           d="m 346.027,242.843 c -0.361,3.962 -0.685,7.907 -0.947,11.84 -4.36,0.054 -8.7,0.117 -13.022,0.185 0.329,-3.911 0.72,-7.829 1.169,-11.759 4.247,-0.09 8.515,-0.177 12.8,-0.266"
           style="fill:#33723f;fill-opacity:1;fill-rule:evenodd;stroke:none"
           id="path3660"
           inkscape:connector-curvature="0" /><path
           d="m 343.993,280.76 c -0.061,3.79 -0.085,7.561 -0.073,11.309 -4.438,0.068 -8.859,0.145 -13.267,0.23 -0.025,-3.774 0,-7.566 0.072,-11.372 4.406,-0.065 8.828,-0.121 13.268,-0.167"
           style="fill:#8278a8;fill-opacity:1;fill-rule:evenodd;stroke:none"
           id="path3662"
           inkscape:connector-curvature="0" /><path
           d="m 344.45,316.771 c 0.134,3.561 0.284,7.091 0.45,10.594 -4.267,0.217 -8.523,0.449 -12.769,0.696 -0.25,-3.567 -0.484,-7.161 -0.682,-10.777 4.322,-0.185 8.656,-0.357 13.001,-0.513"
           style="fill:#3272a0;fill-opacity:1;fill-rule:evenodd;stroke:none"
           id="path3664"
           inkscape:connector-curvature="0" /><path
           d="m 346.074,350.176 c 0.168,3.246 0.33,6.456 0.475,9.627 -3.865,0.476 -7.722,0.974 -11.57,1.484 -0.296,-3.264 -0.603,-6.563 -0.912,-9.896 3.994,-0.423 7.995,-0.829 12.007,-1.215"
           style="fill:#6e7862;fill-opacity:1;fill-rule:evenodd;stroke:none"
           id="path3666"
           inkscape:connector-curvature="0" /><path
           d="m 347.151,380.169 c 0.029,2.856 0.006,5.668 -0.06,8.436 -3.279,0.788 -6.547,1.602 -9.804,2.443 -0.139,-2.869 -0.324,-5.783 -0.532,-8.738 3.455,-0.738 6.922,-1.446 10.396,-2.141"
           style="fill:#db8171;fill-opacity:1;fill-rule:evenodd;stroke:none"
           id="path3668"
           inkscape:connector-curvature="0" /><path
           d="m 345.888,406.119 c -0.308,2.421 -0.674,4.795 -1.112,7.12 -2.576,1.108 -5.137,2.244 -7.682,3.41 0.212,-2.421 0.354,-4.892 0.433,-7.408 2.774,-1.07 5.561,-2.112 8.361,-3.122"
           style="fill:#6f7872;fill-opacity:1;fill-rule:evenodd;stroke:none"
           id="path3670"
           inkscape:connector-curvature="0" /><path
           d="m 340.737,427.781 c -0.672,1.747 -1.408,3.455 -2.203,5.121 -1.867,1.369 -3.703,2.781 -5.526,4.211 0.603,-1.731 1.13,-3.511 1.599,-5.327 2.019,-1.369 4.064,-2.703 6.13,-4.005"
           style="fill:#9e7d70;fill-opacity:1;fill-rule:evenodd;stroke:none"
           id="path3672"
           inkscape:connector-curvature="0" /><path
           d="m 331.122,444.794 c -1.294,1.638 -2.673,3.221 -4.13,4.747 -1.156,1.576 -2.277,3.186 -3.366,4.822 1.253,-1.575 2.413,-3.217 3.486,-4.906 1.306,-1.584 2.643,-3.14 4.01,-4.663"
           style="fill:#4d3d9f;fill-opacity:1;fill-rule:evenodd;stroke:none"
           id="path3674"
           inkscape:connector-curvature="0" /><path
           d="m 315.777,459.184 c -1.871,1.345 -3.817,2.64 -5.831,3.898 -0.51,1.703 -0.985,3.428 -1.423,5.176 1.834,-1.275 3.591,-2.602 5.264,-3.979 0.625,-1.725 1.285,-3.425 1.99,-5.095"
           style="fill:#ae228a;fill-opacity:1;fill-rule:evenodd;stroke:none"
           id="path3676"
           inkscape:connector-curvature="0" /><path
           d="m 294.957,471.205 c -2.427,1.166 -4.92,2.29 -7.469,3.405 0.036,1.745 0.118,3.507 0.234,5.282 2.396,-1.108 4.725,-2.247 6.99,-3.414 0.037,-1.774 0.119,-3.534 0.245,-5.273"
           style="fill:#ec82a9;fill-opacity:1;fill-rule:evenodd;stroke:none"
           id="path3678"
           inkscape:connector-curvature="0" /><path
           d="m 409.325,-0.414 c -0.829,2.092 -1.664,4.169 -2.507,6.23 -0.054,2.525 -0.169,5.004 -0.371,7.435 2.194,-4.48 4.366,-9.032 6.502,-13.665 z"
           style="fill:#aa1892;fill-opacity:1;fill-rule:evenodd;stroke:none"
           id="path3680"
           inkscape:connector-curvature="0" /><path
           d="m 390.728,42.088 c -2.4,5.056 -4.83,10.02 -7.25,14.919 -1.128,1.847 -2.293,3.648 -3.515,5.397 2.72,-4.702 5.45,-9.468 8.155,-14.324 0.923,-1.948 1.792,-3.948 2.61,-5.992"
           style="fill:#bd7f6f;fill-opacity:1;fill-rule:evenodd;stroke:none"
           id="path3682"
           inkscape:connector-curvature="0" /><path
           d="m 367.393,88.469 c -2.324,4.453 -4.633,8.859 -6.917,13.222 -2.028,1.26 -4.082,2.476 -6.143,3.666 2.531,-4.201 5.094,-8.44 7.679,-12.723 1.815,-1.352 3.607,-2.741 5.381,-4.165"
           style="fill:#742391;fill-opacity:1;fill-rule:evenodd;stroke:none"
           id="path3684"
           inkscape:connector-curvature="0" /><path
           d="m 345.775,130.19 c -2.062,4.101 -4.087,8.177 -6.053,12.243 -2.79,0.776 -5.578,1.527 -8.367,2.261 2.178,-3.935 4.413,-7.881 6.697,-11.845 2.579,-0.862 5.154,-1.744 7.723,-2.659"
           style="fill:#3172a4;fill-opacity:1;fill-rule:evenodd;stroke:none"
           id="path3686"
           inkscape:connector-curvature="0" /><path
           d="m 327.436,169.349 c -1.461,3.437 -2.869,6.876 -4.222,10.311 -3.393,0.419 -6.776,0.837 -10.151,1.241 1.507,-3.354 3.07,-6.707 4.685,-10.057 3.222,-0.485 6.451,-0.983 9.688,-1.495"
           style="fill:#1f6e5a;fill-opacity:1;fill-rule:evenodd;stroke:none"
           id="path3688"
           inkscape:connector-curvature="0" /><path
           d="m 313.965,205.955 c -1.189,3.873 -2.303,7.753 -3.328,11.636 -3.883,0.19 -7.752,0.365 -11.609,0.548 1.152,-3.833 2.403,-7.655 3.728,-11.465 3.724,-0.232 7.461,-0.474 11.209,-0.719"
           style="fill:#b57f30;fill-opacity:1;fill-rule:evenodd;stroke:none"
           id="path3690"
           inkscape:connector-curvature="0" /><path
           d="m 304.995,243.751 c -0.643,3.873 -1.203,7.747 -1.68,11.626 -4.2,0.082 -8.39,0.171 -12.565,0.266 0.543,-3.871 1.183,-7.731 1.913,-11.583 4.097,-0.107 8.208,-0.207 12.332,-0.309"
           style="fill:#ea1595;fill-opacity:1;fill-rule:evenodd;stroke:none"
           id="path3692"
           inkscape:connector-curvature="0" /><path
           d="m 301.357,281.482 c -0.108,3.853 -0.144,7.705 -0.102,11.546 -4.311,0.132 -8.612,0.271 -12.904,0.422 -0.039,-3.878 0,-7.76 0.134,-11.64 4.281,-0.118 8.57,-0.227 12.872,-0.328"
           style="fill:#9c61a1;fill-opacity:1;fill-rule:evenodd;stroke:none"
           id="path3694"
           inkscape:connector-curvature="0" /><path
           d="m 302.557,318.727 c 0.33,3.759 0.723,7.501 1.163,11.223 -4.18,0.315 -8.352,0.645 -12.519,0.989 -0.518,-3.797 -0.976,-7.61 -1.362,-11.439 4.231,-0.274 8.471,-0.531 12.718,-0.773"
           style="fill:#b743a0;fill-opacity:1;fill-rule:evenodd;stroke:none"
           id="path3696"
           inkscape:connector-curvature="0" /><path
           d="m 307.301,354.53 c 0.604,3.543 1.231,7.056 1.881,10.536 -3.803,0.607 -7.598,1.233 -11.387,1.886 -0.804,-3.582 -1.572,-7.196 -2.304,-10.84 3.931,-0.549 7.868,-1.074 11.81,-1.582"
           style="fill:#f283b1;fill-opacity:1;fill-rule:evenodd;stroke:none"
           id="path3698"
           inkscape:connector-curvature="0" /><path
           d="m 313.595,387.649 c 0.642,3.195 1.27,6.348 1.879,9.459 -3.207,0.955 -6.407,1.943 -9.596,2.956 -0.819,-3.223 -1.654,-6.488 -2.489,-9.796 3.394,-0.9 6.797,-1.773 10.206,-2.619"
           style="fill:#406a3d;fill-opacity:1;fill-rule:evenodd;stroke:none"
           id="path3700"
           inkscape:connector-curvature="0" /><path
           d="m 319.038,416.898 c 0.428,2.744 0.808,5.438 1.132,8.086 -2.471,1.307 -4.922,2.651 -7.361,4.019 -0.569,-2.752 -1.193,-5.55 -1.852,-8.401 2.681,-1.265 5.374,-2.501 8.081,-3.704"
           style="fill:#6b47a7;fill-opacity:1;fill-rule:evenodd;stroke:none"
           id="path3702"
           inkscape:connector-curvature="0" /><path
           d="m 321.295,441.507 c -0.002,1.972 -0.06,3.908 -0.191,5.801 -1.71,1.588 -3.393,3.209 -5.044,4.87 -0.085,-1.965 -0.249,-3.97 -0.46,-6.014 1.873,-1.589 3.769,-3.143 5.695,-4.657"
           style="fill:#864fad;fill-opacity:1;fill-rule:evenodd;stroke:none"
           id="path3704"
           inkscape:connector-curvature="0" /><path
           d="m 318.746,460.668 c -0.556,1.809 -1.212,3.567 -1.975,5.26 -0.939,1.795 -1.839,3.622 -2.709,5.475 0.535,-1.744 0.958,-3.553 1.276,-5.411 1.1,-1.808 2.236,-3.584 3.408,-5.324"
           style="fill:#8d2f9b;fill-opacity:1;fill-rule:evenodd;stroke:none"
           id="path3706"
           inkscape:connector-curvature="0" /><path
           d="m 310.13,476.411 c -1.217,1.437 -2.539,2.813 -3.946,4.133 -0.255,1.895 -0.467,3.815 -0.638,5.756 1.217,-1.333 2.331,-2.733 3.343,-4.185 0.375,-1.926 0.791,-3.826 1.241,-5.704"
           style="fill:#f08495;fill-opacity:1;fill-rule:evenodd;stroke:none"
           id="path3708"
           inkscape:connector-curvature="0" /><path
           d="m 295.085,488.901 c -1.889,1.17 -3.855,2.301 -5.9,3.39 0.31,1.9 0.676,3.813 1.085,5.741 1.885,-1.074 3.686,-2.199 5.408,-3.357 -0.247,-1.94 -0.436,-3.866 -0.593,-5.774"
           style="fill:#68324f;fill-opacity:1;fill-rule:evenodd;stroke:none"
           id="path3710"
           inkscape:connector-curvature="0" /><path
           d="m 414.244,13.107 c -3.37,5.256 -6.767,10.398 -10.188,15.428 -0.502,2.112 -1.059,4.183 -1.679,6.208 3.712,-4.83 7.412,-9.769 11.078,-14.829 0.328,-2.226 0.597,-4.495 0.789,-6.807"
           style="fill:#58763b;fill-opacity:1;fill-rule:evenodd;stroke:none"
           id="path3712"
           inkscape:connector-curvature="0" /><path
           d="m 381.192,60.354 c -3.339,4.432 -6.671,8.794 -9.997,13.089 -1.372,1.532 -2.789,3.014 -4.233,4.461 3.567,-4.126 7.149,-8.318 10.733,-12.585 1.207,-1.611 2.377,-3.267 3.497,-4.965"
           style="fill:#39733f;fill-opacity:1;fill-rule:evenodd;stroke:none"
           id="path3714"
           inkscape:connector-curvature="0" /><path
           d="m 349.436,101.133 c -3.113,3.939 -6.203,7.836 -9.245,11.706 -2.124,1.034 -4.264,2.036 -6.413,3.015 3.252,-3.738 6.55,-7.497 9.88,-11.291 1.947,-1.106 3.871,-2.25 5.778,-3.43"
           style="fill:#4974c2;fill-opacity:1;fill-rule:evenodd;stroke:none"
           id="path3716"
           inkscape:connector-curvature="0" /><path
           d="m 320.642,138.272 c -2.74,3.688 -5.424,7.365 -8.046,11.042 -2.77,0.642 -5.543,1.257 -8.316,1.864 2.801,-3.577 5.676,-7.144 8.605,-10.718 2.588,-0.71 5.175,-1.438 7.757,-2.188"
           style="fill:#63709a;fill-opacity:1;fill-rule:evenodd;stroke:none"
           id="path3718"
           inkscape:connector-curvature="0" /><path
           d="m 296.192,173.906 c -1.955,3.17 -3.851,6.352 -5.68,9.55 -3.311,0.353 -6.616,0.697 -9.915,1.04 1.969,-3.133 4.005,-6.249 6.105,-9.349 3.158,-0.404 6.322,-0.815 9.49,-1.241"
           style="fill:#eb82a6;fill-opacity:1;fill-rule:evenodd;stroke:none"
           id="path3720"
           inkscape:connector-curvature="0" /><path
           d="m 277.909,208.189 c -1.638,3.686 -3.18,7.398 -4.614,11.136 -3.772,0.171 -7.537,0.341 -11.294,0.51 1.557,-3.7 3.228,-7.37 5.002,-11.011 3.627,-0.204 7.262,-0.425 10.906,-0.635"
           style="fill:#bb7e28;fill-opacity:1;fill-rule:evenodd;stroke:none"
           id="path3722"
           inkscape:connector-curvature="0" /><path
           d="m 265.297,244.811 c -0.932,3.821 -1.753,7.668 -2.459,11.534 -4.099,0.117 -8.19,0.231 -12.275,0.358 0.78,-3.87 1.684,-7.717 2.708,-11.529 4.002,-0.121 8.01,-0.244 12.026,-0.363"
           style="fill:#cd805e;fill-opacity:1;fill-rule:evenodd;stroke:none"
           id="path3724"
           inkscape:connector-curvature="0" /><path
           d="m 259.819,282.733 c -0.19,3.955 -0.267,7.918 -0.236,11.889 -4.238,0.197 -8.472,0.403 -12.701,0.624 -0.024,-4.018 0.075,-8.026 0.298,-12.015 4.208,-0.175 8.421,-0.34 12.639,-0.498"
           style="fill:#4f7586;fill-opacity:1;fill-rule:evenodd;stroke:none"
           id="path3726"
           inkscape:connector-curvature="0" /><path
           d="m 261.41,321.552 c 0.498,3.995 1.095,7.985 1.779,11.963 -4.138,0.419 -8.274,0.854 -12.409,1.308 -0.754,-4.067 -1.408,-8.14 -1.953,-12.217 4.191,-0.366 8.385,-0.719 12.583,-1.054"
           style="fill:#6f7954;fill-opacity:1;fill-rule:evenodd;stroke:none"
           id="path3728"
           inkscape:connector-curvature="0" /><path
           d="m 269.031,360.119 c 1.027,3.884 2.116,7.739 3.258,11.565 -3.771,0.754 -7.542,1.529 -11.309,2.334 -1.296,-3.941 -2.526,-7.912 -3.683,-11.91 3.91,-0.685 7.82,-1.349 11.734,-1.989"
           style="fill:#3d73a0;fill-opacity:1;fill-rule:evenodd;stroke:none"
           id="path3730"
           inkscape:connector-curvature="0" /><path
           d="m 280.57,396.758 c 1.282,3.579 2.583,7.113 3.894,10.601 -3.156,1.152 -6.306,2.333 -9.449,3.545 -1.534,-3.612 -3.05,-7.273 -4.538,-10.981 3.357,-1.089 6.723,-2.14 10.093,-3.165"
           style="fill:#977290;fill-opacity:1;fill-rule:evenodd;stroke:none"
           id="path3732"
           inkscape:connector-curvature="0" /><path
           d="m 293.068,429.669 c 1.21,3.102 2.392,6.15 3.535,9.143 -2.364,1.538 -4.714,3.11 -7.043,4.723 -1.409,-3.104 -2.852,-6.266 -4.315,-9.487 2.592,-1.496 5.204,-2.951 7.823,-4.379"
           style="fill:#e92d9a;fill-opacity:1;fill-rule:evenodd;stroke:none"
           id="path3734"
           inkscape:connector-curvature="0" /><path
           d="m 303.305,457.458 c 0.716,2.212 1.387,4.381 1.991,6.509 -1.531,1.842 -3.041,3.715 -4.511,5.631 -0.846,-2.198 -1.749,-4.442 -2.703,-6.732 1.714,-1.839 3.453,-3.645 5.223,-5.408"
           style="fill:#7c7a45;fill-opacity:1;fill-rule:evenodd;stroke:none"
           id="path3736"
           inkscape:connector-curvature="0" /><path
           d="m 308.419,478.792 c 0.221,1.966 0.347,3.881 0.355,5.737 -0.701,2.038 -1.353,4.11 -1.967,6.212 -0.259,-1.901 -0.637,-3.861 -1.112,-5.871 0.868,-2.061 1.77,-4.089 2.724,-6.078"
           style="fill:#642692;fill-opacity:1;fill-rule:evenodd;stroke:none"
           id="path3738"
           inkscape:connector-curvature="0" /><path
           d="m 307.027,495.688 c -0.519,1.483 -1.178,2.907 -1.948,4.263 0.035,2.107 0.116,4.237 0.247,6.387 0.57,-1.359 1.001,-2.793 1.311,-4.274 0.09,-2.15 0.217,-4.276 0.39,-6.376"
           style="fill:#717932;fill-opacity:1;fill-rule:evenodd;stroke:none"
           id="path3740"
           inkscape:connector-curvature="0" /><path
           d="m 298.037,508.252 c -1.331,1.13 -2.766,2.206 -4.297,3.224 0.629,2.058 1.302,4.128 2.021,6.21 1.37,-0.989 2.645,-2.029 3.8,-3.137 -0.563,-2.111 -1.062,-4.214 -1.524,-6.297"
           style="fill:#612268;fill-opacity:1;fill-rule:evenodd;stroke:none"
           id="path3742"
           inkscape:connector-curvature="0" /><path
           d="m 410.28,33.97 c -4.29,4.628 -8.581,9.155 -12.883,13.569 -0.848,1.777 -1.751,3.511 -2.691,5.209 4.53,-4.249 9.071,-8.592 13.607,-13.047 0.711,-1.869 1.362,-3.782 1.967,-5.731"
           style="fill:#237048;fill-opacity:1;fill-rule:evenodd;stroke:none"
           id="path3744"
           inkscape:connector-curvature="0" /><path
           d="m 369.019,75.523 c -4.102,3.909 -8.186,7.753 -12.248,11.538 -1.569,1.275 -3.164,2.516 -4.791,3.711 4.26,-3.645 8.543,-7.35 12.858,-11.108 1.428,-1.341 2.825,-2.719 4.181,-4.141"
           style="fill:#343e97;fill-opacity:1;fill-rule:evenodd;stroke:none"
           id="path3746"
           inkscape:connector-curvature="0" /><path
           d="m 330.299,111.588 c -3.777,3.508 -7.519,6.979 -11.205,10.442 -2.2,0.856 -4.41,1.692 -6.632,2.497 3.868,-3.348 7.794,-6.705 11.749,-10.095 2.044,-0.919 4.075,-1.864 6.088,-2.844"
           style="fill:#3d733d;fill-opacity:1;fill-rule:evenodd;stroke:none"
           id="path3748"
           inkscape:connector-curvature="0" /><path
           d="m 295.383,144.938 c -3.329,3.345 -6.597,6.695 -9.79,10.062 -2.767,0.528 -5.535,1.042 -8.302,1.547 3.356,-3.281 6.791,-6.542 10.29,-9.796 2.603,-0.588 5.205,-1.187 7.802,-1.813"
           style="fill:#3d4855;fill-opacity:1;fill-rule:evenodd;stroke:none"
           id="path3750"
           inkscape:connector-curvature="0" /><path
           d="m 265.494,177.707 c -2.412,2.958 -4.756,5.939 -7.025,8.946 -3.26,0.303 -6.518,0.597 -9.771,0.887 2.397,-2.959 4.876,-5.884 7.42,-8.787 3.123,-0.337 6.247,-0.693 9.376,-1.046"
           style="fill:#ee8387;fill-opacity:1;fill-rule:evenodd;stroke:none"
           id="path3752"
           inkscape:connector-curvature="0" /><path
           d="m 242.693,210.187 c -2.076,3.546 -4.034,7.139 -5.871,10.775 -3.708,0.165 -7.412,0.327 -11.112,0.494 1.963,-3.61 4.052,-7.175 6.257,-10.688 3.571,-0.188 7.146,-0.389 10.726,-0.581"
           style="fill:#5c3098;fill-opacity:1;fill-rule:evenodd;stroke:none"
           id="path3754"
           inkscape:connector-curvature="0" /><path
           d="m 226.428,246.06 c -1.239,3.81 -2.338,7.666 -3.295,11.561 -4.047,0.146 -8.092,0.3 -12.134,0.46 1.039,-3.911 2.229,-7.778 3.565,-11.593 3.951,-0.147 7.906,-0.289 11.864,-0.428"
           style="fill:#bf274a;fill-opacity:1;fill-rule:evenodd;stroke:none"
           id="path3756"
           inkscape:connector-curvature="0" /><path
           d="m 218.866,284.547 c -0.304,4.086 -0.46,8.205 -0.47,12.343 -4.216,0.268 -8.432,0.549 -12.648,0.84 0.029,-4.197 0.213,-8.369 0.559,-12.506 4.186,-0.236 8.372,-0.461 12.559,-0.677"
           style="fill:#847a7c;fill-opacity:1;fill-rule:evenodd;stroke:none"
           id="path3758"
           inkscape:connector-curvature="0" /><path
           d="m 220.538,325.317 c 0.639,4.276 1.417,8.557 2.323,12.832 -4.145,0.536 -8.291,1.086 -12.439,1.66 -0.969,-4.378 -1.798,-8.757 -2.476,-13.127 4.199,-0.473 8.396,-0.925 12.592,-1.365"
           style="fill:#3072c2;fill-opacity:1;fill-rule:evenodd;stroke:none"
           id="path3760"
           inkscape:connector-curvature="0" /><path
           d="m 230.875,367.091 c 1.449,4.273 3.005,8.521 4.65,12.741 -3.78,0.923 -7.561,1.872 -11.343,2.849 -1.804,-4.352 -3.502,-8.733 -5.083,-13.139 3.926,-0.845 7.853,-1.656 11.776,-2.451"
           style="fill:#e281b8;fill-opacity:1;fill-rule:evenodd;stroke:none"
           id="path3762"
           inkscape:connector-curvature="0" /><path
           d="m 247.829,407.738 c 1.963,4.016 3.979,7.981 6.038,11.892 -3.125,1.381 -6.249,2.784 -9.362,4.234 -2.297,-4.054 -4.547,-8.16 -6.733,-12.323 3.349,-1.299 6.701,-2.569 10.057,-3.803"
           style="fill:#2754a2;fill-opacity:1;fill-rule:evenodd;stroke:none"
           id="path3764"
           inkscape:connector-curvature="0" /><path
           d="m 267.919,444.758 c 2.062,3.505 4.121,6.937 6.16,10.304 -2.261,1.807 -4.501,3.655 -6.716,5.551 -2.333,-3.488 -4.678,-7.05 -7.023,-10.685 2.51,-1.765 5.036,-3.489 7.579,-5.17"
           style="fill:#2d7169;fill-opacity:1;fill-rule:evenodd;stroke:none"
           id="path3766"
           inkscape:connector-curvature="0" /><path
           d="m 286.907,475.989 c 1.51,2.469 2.976,4.881 4.389,7.24 -1.339,2.13 -2.646,4.299 -3.906,6.515 -1.678,-2.43 -3.404,-4.922 -5.179,-7.47 1.534,-2.138 3.099,-4.232 4.696,-6.285"
           style="fill:#7f7a84;fill-opacity:1;fill-rule:evenodd;stroke:none"
           id="path3768"
           inkscape:connector-curvature="0" /><path
           d="m 300.423,499.48 c 1.066,2.113 2.037,4.161 2.889,6.149 -0.417,2.316 -0.791,4.664 -1.112,7.045 -1.128,-2.019 -2.372,-4.103 -3.713,-6.257 0.6,-2.348 1.245,-4.661 1.936,-6.937"
           style="fill:#be0c8d;fill-opacity:1;fill-rule:evenodd;stroke:none"
           id="path3770"
           inkscape:connector-curvature="0" /><path
           d="m 306.82,517.222 c 0.197,1.468 0.254,2.891 0.159,4.248 0.369,2.336 0.783,4.693 1.251,7.072 -0.123,-1.346 -0.409,-2.753 -0.83,-4.206 -0.242,-2.397 -0.44,-4.768 -0.58,-7.114"
           style="fill:#d780c2;fill-opacity:1;fill-rule:evenodd;stroke:none"
           id="path3772"
           inkscape:connector-curvature="0" /><path
           d="m 304.125,529.325 c -0.761,1.022 -1.666,1.978 -2.684,2.865 0.963,2.22 1.982,4.447 3.049,6.683 0.867,-0.827 1.611,-1.735 2.191,-2.709 -0.901,-2.293 -1.754,-4.573 -2.556,-6.839"
           style="fill:#ce6037;fill-opacity:1;fill-rule:evenodd;stroke:none"
           id="path3774"
           inkscape:connector-curvature="0" /><path
           d="m 402.792,51.558 c -5.037,4.083 -10.068,8.057 -15.079,11.949 -1.122,1.499 -2.287,2.96 -3.484,4.389 5.202,-3.747 10.431,-7.57 15.673,-11.495 1.014,-1.572 1.969,-3.192 2.89,-4.843"
           style="fill:#d00d90;fill-opacity:1;fill-rule:evenodd;stroke:none"
           id="path3776"
           inkscape:connector-curvature="0" /><path
           d="m 354.797,88.194 c -4.735,3.46 -9.451,6.853 -14.12,10.219 -1.725,1.063 -3.468,2.098 -5.231,3.107 4.841,-3.244 9.721,-6.526 14.636,-9.855 1.593,-1.129 3.172,-2.277 4.715,-3.471"
           style="fill:#a27257;fill-opacity:1;fill-rule:evenodd;stroke:none"
           id="path3778"
           inkscape:connector-curvature="0" /><path
           d="m 310.221,120.278 c -4.348,3.141 -8.649,6.265 -12.894,9.385 -2.264,0.719 -4.538,1.406 -6.817,2.084 4.402,-3.029 8.863,-6.054 13.369,-9.097 2.125,-0.769 4.237,-1.564 6.342,-2.372"
           style="fill:#3e737e;fill-opacity:1;fill-rule:evenodd;stroke:none"
           id="path3780"
           inkscape:connector-curvature="0" /><path
           d="m 269.957,150.479 c -3.86,3.062 -7.646,6.149 -11.36,9.256 -2.773,0.439 -5.547,0.881 -8.323,1.298 3.864,-3.042 7.808,-6.048 11.818,-9.038 2.624,-0.492 5.246,-0.998 7.865,-1.516"
           style="fill:#9a7bc1;fill-opacity:1;fill-rule:evenodd;stroke:none"
           id="path3782"
           inkscape:connector-curvature="0" /><path
           d="m 235.091,180.928 c -2.835,2.791 -5.608,5.606 -8.293,8.468 -3.237,0.267 -6.473,0.522 -9.71,0.771 2.814,-2.82 5.709,-5.601 8.675,-8.345 3.11,-0.291 6.22,-0.583 9.328,-0.894"
           style="fill:#f082c3;fill-opacity:1;fill-rule:evenodd;stroke:none"
           id="path3784"
           inkscape:connector-curvature="0" /><path
           d="m 207.942,212.032 c -2.504,3.449 -4.883,6.963 -7.128,10.536 -3.681,0.164 -7.361,0.333 -11.043,0.5 2.372,-3.565 4.884,-7.061 7.521,-10.489 3.549,-0.182 7.099,-0.364 10.65,-0.547"
           style="fill:#863fa2;fill-opacity:1;fill-rule:evenodd;stroke:none"
           id="path3786"
           inkscape:connector-curvature="0" /><path
           d="m 187.938,247.541 c -1.563,3.837 -2.964,7.741 -4.201,11.702 -4.04,0.187 -8.081,0.378 -12.125,0.576 1.324,-3.99 2.827,-7.916 4.496,-11.767 3.945,-0.174 7.888,-0.345 11.83,-0.511"
           style="fill:#bc7f29;fill-opacity:1;fill-rule:evenodd;stroke:none"
           id="path3788"
           inkscape:connector-curvature="0" /><path
           d="m 178.019,286.969 c -0.452,4.26 -0.719,8.574 -0.8,12.921 -4.241,0.348 -8.488,0.707 -12.74,1.08 0.111,-4.421 0.418,-8.799 0.922,-13.124 4.211,-0.303 8.416,-0.594 12.618,-0.877"
           style="fill:#592c63;fill-opacity:1;fill-rule:evenodd;stroke:none"
           id="path3790"
           inkscape:connector-curvature="0" /><path
           d="m 179.477,330.127 c 0.752,4.605 1.692,9.226 2.804,13.852 -4.195,0.665 -8.398,1.353 -12.607,2.06 -1.17,-4.747 -2.155,-9.485 -2.941,-14.202 4.256,-0.588 8.503,-1.159 12.744,-1.71"
           style="fill:#eb81c6;fill-opacity:1;fill-rule:evenodd;stroke:none"
           id="path3792"
           inkscape:connector-curvature="0" /><path
           d="m 192.44,375.641 c 1.886,4.727 3.92,9.429 6.088,14.104 -3.824,1.119 -7.655,2.269 -11.489,3.449 -2.338,-4.827 -4.521,-9.686 -6.543,-14.566 3.987,-1.023 7.969,-2.017 11.944,-2.987"
           style="fill:#486f36;fill-opacity:1;fill-rule:evenodd;stroke:none"
           id="path3794"
           inkscape:connector-curvature="0" /><path
           d="m 215.121,420.908 c 2.707,4.516 5.502,8.971 8.373,13.363 -3.117,1.643 -6.228,3.323 -9.33,5.049 -3.141,-4.552 -6.192,-9.173 -9.139,-13.859 3.366,-1.552 6.729,-3.073 10.096,-4.553"
           style="fill:#8e3e92;fill-opacity:1;fill-rule:evenodd;stroke:none"
           id="path3796"
           inkscape:connector-curvature="0" /><path
           d="m 243.56,462.577 c 3.012,3.953 6.044,7.816 9.08,11.589 -2.148,2.128 -4.269,4.306 -6.365,6.533 -3.361,-3.912 -6.724,-7.909 -10.053,-12.012 2.428,-2.083 4.872,-4.124 7.338,-6.11"
           style="fill:#c07ebe;fill-opacity:1;fill-rule:evenodd;stroke:none"
           id="path3798"
           inkscape:connector-curvature="0" /><path
           d="m 272.303,497.535 c 2.396,2.738 4.753,5.398 7.059,7.989 -1.115,2.468 -2.181,4.985 -3.205,7.547 -2.604,-2.658 -5.257,-5.395 -7.946,-8.218 1.329,-2.486 2.686,-4.928 4.092,-7.318"
           style="fill:#92475b;fill-opacity:1;fill-rule:evenodd;stroke:none"
           id="path3800"
           inkscape:connector-curvature="0" /><path
           d="m 295.125,523.101 c 1.989,2.24 3.878,4.388 5.652,6.457 -0.095,2.627 -0.137,5.291 -0.119,7.987 -2.074,-2.078 -4.262,-4.249 -6.553,-6.522 0.29,-2.678 0.629,-5.319 1.02,-7.922"
           style="fill:#ab52ab;fill-opacity:1;fill-rule:evenodd;stroke:none"
           id="path3802"
           inkscape:connector-curvature="0" /><path
           d="m 309.919,541.232 c 0.931,1.403 1.734,2.744 2.367,4.034 0.744,2.579 1.537,5.182 2.386,7.806 -0.866,-1.248 -1.9,-2.547 -3.063,-3.919 -0.616,-2.667 -1.184,-5.305 -1.69,-7.921"
           style="fill:#665ab2;fill-opacity:1;fill-rule:evenodd;stroke:none"
           id="path3804"
           inkscape:connector-curvature="0" /><path
           d="m 313.688,552.168 c -0.196,0.818 -0.573,1.591 -1.103,2.264 1.339,2.371 2.727,4.754 4.166,7.145 0.389,-0.591 0.606,-1.292 0.63,-2.022 -1.286,-2.473 -2.523,-4.934 -3.693,-7.387"
           style="fill:#df80c1;fill-opacity:1;fill-rule:evenodd;stroke:none"
           id="path3806"
           inkscape:connector-curvature="0" /><path
           d="m 392.537,66.436 c -5.656,3.596 -11.287,7.102 -16.883,10.541 -1.34,1.268 -2.715,2.501 -4.107,3.711 5.757,-3.308 11.548,-6.687 17.371,-10.148 1.239,-1.334 2.443,-2.707 3.619,-4.104"
           style="fill:#a82688;fill-opacity:1;fill-rule:evenodd;stroke:none"
           id="path3808"
           inkscape:connector-curvature="0" /><path
           d="m 338.964,98.83 c -5.274,3.074 -10.512,6.1 -15.707,9.097 -1.844,0.899 -3.71,1.763 -5.586,2.612 5.338,-2.901 10.726,-5.816 16.148,-8.785 1.732,-0.95 3.447,-1.925 5.145,-2.924"
           style="fill:#b5767e;fill-opacity:1;fill-rule:evenodd;stroke:none"
           id="path3810"
           inkscape:connector-curvature="0" /><path
           d="m 289.36,127.541 c -4.846,2.837 -9.644,5.663 -14.383,8.501 -2.322,0.598 -4.65,1.181 -6.986,1.749 4.883,-2.757 9.823,-5.504 14.811,-8.26 2.196,-0.644 4.381,-1.312 6.558,-1.99"
           style="fill:#385ab1;fill-opacity:1;fill-rule:evenodd;stroke:none"
           id="path3812"
           inkscape:connector-curvature="0" /><path
           d="m 244.307,155.123 c -4.343,2.832 -8.616,5.693 -12.811,8.596 -2.789,0.372 -5.582,0.735 -8.377,1.098 4.34,-2.845 8.759,-5.643 13.24,-8.419 2.654,-0.41 5.301,-0.847 7.948,-1.275"
           style="fill:#937ac4;fill-opacity:1;fill-rule:evenodd;stroke:none"
           id="path3814"
           inkscape:connector-curvature="0" /><path
           d="m 204.77,183.691 c -3.251,2.657 -6.429,5.357 -9.526,8.104 -3.239,0.227 -6.479,0.462 -9.722,0.684 3.223,-2.721 6.526,-5.388 9.901,-8.01 3.117,-0.253 6.233,-0.51 9.347,-0.778"
           style="fill:#37723e;fill-opacity:1;fill-rule:evenodd;stroke:none"
           id="path3816"
           inkscape:connector-curvature="0" /><path
           d="m 173.329,213.794 c -2.939,3.392 -5.751,6.861 -8.415,10.413 -3.689,0.169 -7.382,0.343 -11.077,0.518 2.793,-3.555 5.744,-7.016 8.821,-10.394 3.559,-0.181 7.116,-0.359 10.671,-0.537"
           style="fill:#435486;fill-opacity:1;fill-rule:evenodd;stroke:none"
           id="path3818"
           inkscape:connector-curvature="0" /><path
           d="m 149.418,249.302 c -1.915,3.899 -3.646,7.891 -5.195,11.957 -4.076,0.233 -8.157,0.467 -12.246,0.708 1.647,-4.108 3.495,-8.132 5.522,-12.06 3.978,-0.207 7.951,-0.407 11.919,-0.605"
           style="fill:#c91675;fill-opacity:1;fill-rule:evenodd;stroke:none"
           id="path3820"
           inkscape:connector-curvature="0" /><path
           d="m 136.821,290.063 c -0.633,4.481 -1.045,9.034 -1.238,13.64 -4.316,0.437 -8.642,0.888 -12.979,1.353 0.233,-4.695 0.695,-9.334 1.396,-13.891 4.283,-0.381 8.556,-0.746 12.821,-1.102"
           style="fill:#a65db5;fill-opacity:1;fill-rule:evenodd;stroke:none"
           id="path3822"
           inkscape:connector-curvature="0" /><path
           d="m 137.756,336.114 c 0.849,4.995 1.929,10.021 3.232,15.061 -4.297,0.816 -8.606,1.657 -12.927,2.52 -1.358,-5.182 -2.482,-10.345 -3.353,-15.474 4.362,-0.724 8.711,-1.425 13.048,-2.107"
           style="fill:#d18240;fill-opacity:1;fill-rule:evenodd;stroke:none"
           id="path3824"
           inkscape:connector-curvature="0" /><path
           d="m 153.309,386.032 c 2.342,5.253 4.884,10.487 7.609,15.694 -3.913,1.348 -7.833,2.735 -11.761,4.161 -2.908,-5.387 -5.613,-10.804 -8.1,-16.239 4.095,-1.237 8.179,-2.441 12.252,-3.616"
           style="fill:#3072a3;fill-opacity:1;fill-rule:evenodd;stroke:none"
           id="path3826"
           inkscape:connector-curvature="0" /><path
           d="m 182.191,436.676 c 3.525,5.095 7.186,10.118 10.967,15.062 -3.122,1.963 -6.243,3.97 -9.356,6.03 -4.083,-5.13 -8.03,-10.348 -11.832,-15.64 3.407,-1.863 6.816,-3.675 10.221,-5.452"
           style="fill:#3573c1;fill-opacity:1;fill-rule:evenodd;stroke:none"
           id="path3828"
           inkscape:connector-curvature="0" /><path
           d="m 219.993,483.655 c 4.092,4.453 8.231,8.79 12.388,13.015 -2.021,2.516 -4.012,5.086 -5.974,7.713 -4.536,-4.372 -9.046,-8.864 -13.501,-13.487 2.343,-2.467 4.699,-4.886 7.087,-7.241"
           style="fill:#2956a7;fill-opacity:1;fill-rule:evenodd;stroke:none"
           id="path3830"
           inkscape:connector-curvature="0" /><path
           d="m 259.777,522.643 c 3.395,3.012 6.749,5.925 10.064,8.729 -0.841,2.872 -1.636,5.794 -2.376,8.765 -3.648,-2.869 -7.337,-5.857 -11.067,-8.952 1.08,-2.901 2.207,-5.748 3.379,-8.542"
           style="fill:#ad7cba;fill-opacity:1;fill-rule:evenodd;stroke:none"
           id="path3832"
           inkscape:connector-curvature="0" /><path
           d="m 292.983,550.086 c 3.007,2.324 5.904,4.519 8.672,6.603 0.29,2.982 0.633,6.002 1.045,9.058 -3.097,-2.062 -6.314,-4.269 -9.656,-6.604 -0.084,-3.06 -0.102,-6.08 -0.061,-9.057"
           style="fill:#3a44a2;fill-opacity:1;fill-rule:evenodd;stroke:none"
           id="path3834"
           inkscape:connector-curvature="0" /><path
           d="m 316.801,567.947 c 1.696,1.275 3.252,2.45 4.646,3.553 1.159,2.841 2.383,5.703 3.67,8.584 -1.624,-1.023 -3.413,-2.128 -5.355,-3.339 -1.042,-2.961 -2.033,-5.892 -2.961,-8.798"
           style="fill:#ed839a;fill-opacity:1;fill-rule:evenodd;stroke:none"
           id="path3836"
           inkscape:connector-curvature="0" /><path
           d="m 327.071,576.789 c 0.308,0.492 0.469,0.973 0.388,1.362 1.736,2.52 3.524,5.049 5.369,7.58 -0.06,-0.296 -0.375,-0.634 -0.814,-1.013 -1.702,-2.655 -3.35,-5.299 -4.943,-7.929"
           style="fill:#902425;fill-opacity:1;fill-rule:evenodd;stroke:none"
           id="path3838"
           inkscape:connector-curvature="0" /><path
           d="m 380.092,79.06 c -6.162,3.181 -12.289,6.285 -18.378,9.322 -1.512,1.079 -3.056,2.118 -4.609,3.146 6.222,-2.927 12.488,-5.912 18.788,-8.977 1.429,-1.13 2.822,-2.303 4.199,-3.491"
           style="fill:#917d32;fill-opacity:1;fill-rule:evenodd;stroke:none"
           id="path3840"
           inkscape:connector-curvature="0" /><path
           d="m 321.833,107.799 c -5.732,2.748 -11.432,5.447 -17.077,8.138 -1.947,0.755 -3.912,1.483 -5.882,2.204 5.776,-2.603 11.602,-5.215 17.463,-7.871 1.844,-0.809 3.679,-1.624 5.496,-2.471"
           style="fill:#633da0;fill-opacity:1;fill-rule:evenodd;stroke:none"
           id="path3842"
           inkscape:connector-curvature="0" /><path
           d="m 267.822,133.643 c -5.294,2.583 -10.541,5.162 -15.731,7.759 -2.375,0.504 -4.758,0.999 -7.147,1.474 5.32,-2.533 10.695,-5.052 16.123,-7.557 2.259,-0.545 4.512,-1.1 6.755,-1.676"
           style="fill:#52763f;fill-opacity:1;fill-rule:evenodd;stroke:none"
           id="path3844"
           inkscape:connector-curvature="0" /><path
           d="m 218.364,159.039 c -4.797,2.646 -9.531,5.324 -14.184,8.057 -2.82,0.315 -5.641,0.635 -8.468,0.938 4.798,-2.68 9.668,-5.313 14.6,-7.913 2.689,-0.348 5.373,-0.711 8.052,-1.082"
           style="fill:#2d6f40;fill-opacity:1;fill-rule:evenodd;stroke:none"
           id="path3846"
           inkscape:connector-curvature="0" /><path
           d="m 174.324,186.109 c -3.656,2.559 -7.241,5.166 -10.748,7.831 -3.264,0.21 -6.532,0.415 -9.804,0.622 3.633,-2.65 7.348,-5.23 11.128,-7.765 3.145,-0.228 6.286,-0.449 9.424,-0.688"
           style="fill:#536e76;fill-opacity:1;fill-rule:evenodd;stroke:none"
           id="path3848"
           inkscape:connector-curvature="0" /><path
           d="m 138.544,215.538 c -3.392,3.365 -6.649,6.831 -9.758,10.389 -3.731,0.186 -7.469,0.372 -11.213,0.554 3.25,-3.568 6.654,-7.035 10.188,-10.403 3.6,-0.177 7.194,-0.364 10.783,-0.54"
           style="fill:#8273c1;fill-opacity:1;fill-rule:evenodd;stroke:none"
           id="path3850"
           inkscape:connector-curvature="0" /><path
           d="m 110.473,251.393 c -2.301,4.002 -4.407,8.119 -6.302,12.334 -4.155,0.278 -8.321,0.563 -12.499,0.858 2.002,-4.273 4.239,-8.435 6.67,-12.473 4.053,-0.244 8.096,-0.488 12.131,-0.719"
           style="fill:#e38269;fill-opacity:1;fill-rule:evenodd;stroke:none"
           id="path3852"
           inkscape:connector-curvature="0" /><path
           d="m 94.799,293.919 c -0.863,4.749 -1.459,9.6 -1.799,14.52 -4.443,0.538 -8.9,1.094 -13.374,1.664 0.393,-5.032 1.061,-9.982 2.001,-14.828 4.406,-0.465 8.796,-0.919 13.172,-1.356"
           style="fill:#945bb3;fill-opacity:1;fill-rule:evenodd;stroke:none"
           id="path3854"
           inkscape:connector-curvature="0" /><path
           d="m 94.864,343.461 c 0.916,5.458 2.126,10.964 3.607,16.497 -4.454,0.995 -8.926,2.015 -13.416,3.064 -1.543,-5.7 -2.783,-11.374 -3.712,-16.992 4.525,-0.88 9.032,-1.74 13.521,-2.569"
           style="fill:#c41673;fill-opacity:1;fill-rule:evenodd;stroke:none"
           id="path3856"
           inkscape:connector-curvature="0" /><path
           d="m 113.012,398.6 c 2.826,5.879 5.92,11.741 9.256,17.574 -4.047,1.628 -8.103,3.308 -12.177,5.02 -3.534,-6.05 -6.806,-12.128 -9.795,-18.222 4.256,-1.491 8.493,-2.951 12.716,-4.372"
           style="fill:#877644;fill-opacity:1;fill-rule:evenodd;stroke:none"
           id="path3858"
           inkscape:connector-curvature="0" /><path
           d="m 148.756,455.578 c 4.46,5.769 9.102,11.456 13.914,17.043 -3.15,2.355 -6.305,4.756 -9.444,7.227 -5.154,-5.81 -10.136,-11.715 -14.907,-17.72 3.48,-2.237 6.96,-4.42 10.437,-6.55"
           style="fill:#b97ba4;fill-opacity:1;fill-rule:evenodd;stroke:none"
           id="path3860"
           inkscape:connector-curvature="0" /><path
           d="m 197.264,508.674 c 5.338,5.016 10.738,9.889 16.194,14.604 -1.875,2.982 -3.714,6.032 -5.518,9.146 -5.888,-4.885 -11.727,-9.925 -17.487,-15.128 2.242,-2.94 4.51,-5.816 6.811,-8.622"
           style="fill:#cd8430;fill-opacity:1;fill-rule:evenodd;stroke:none"
           id="path3862"
           inkscape:connector-curvature="0" /><path
           d="m 249.718,551.989 c 4.532,3.283 9.025,6.433 13.476,9.434 -0.518,3.346 -0.982,6.749 -1.378,10.21 -4.834,-3.05 -9.709,-6.264 -14.62,-9.635 0.795,-3.394 1.628,-6.732 2.522,-10.009"
           style="fill:#df80c6;fill-opacity:1;fill-rule:evenodd;stroke:none"
           id="path3864"
           inkscape:connector-curvature="0" /><path
           d="m 294.573,580.942 c 4.13,2.333 8.116,4.51 11.963,6.509 0.732,3.383 1.539,6.805 2.414,10.267 -4.188,-1.96 -8.542,-4.083 -13.03,-6.414 -0.515,-3.499 -0.964,-6.953 -1.347,-10.362"
           style="fill:#4a753a;fill-opacity:1;fill-rule:evenodd;stroke:none"
           id="path3866"
           inkscape:connector-curvature="0" /><path
           d="m 329.293,600.487 c -0.433,-0.968 -0.859,-1.933 -1.279,-2.895 2.493,1.027 4.802,1.951 6.948,2.715 0.031,0.06 0.063,0.12 0.095,0.18 z"
           style="fill:#a0766b;fill-opacity:1;fill-rule:evenodd;stroke:none"
           id="path3868"
           inkscape:connector-curvature="0" /><path
           d="m 365.896,89.802 c -6.593,2.802 -13.135,5.564 -19.635,8.261 -1.448,0.803 -2.913,1.578 -4.381,2.351 6.599,-2.616 13.25,-5.276 19.941,-8.003 1.375,-0.848 2.723,-1.735 4.075,-2.609"
           style="fill:#8b3a66;fill-opacity:1;fill-rule:evenodd;stroke:none"
           id="path3870"
           inkscape:connector-curvature="0" /><path
           d="m 303.631,115.387 c -6.139,2.457 -12.235,4.895 -18.286,7.316 -1.78,0.559 -3.567,1.108 -5.364,1.638 6.151,-2.359 12.346,-4.733 18.59,-7.118 1.693,-0.604 3.381,-1.213 5.06,-1.836"
           style="fill:#907aa3;fill-opacity:1;fill-rule:evenodd;stroke:none"
           id="path3872"
           inkscape:connector-curvature="0" /><path
           d="m 245.661,138.791 c -5.71,2.361 -11.369,4.739 -16.979,7.135 -2.125,0.375 -4.257,0.743 -6.393,1.094 5.72,-2.345 11.486,-4.673 17.305,-6.985 2.028,-0.403 4.05,-0.824 6.067,-1.244"
           style="fill:#787273;fill-opacity:1;fill-rule:evenodd;stroke:none"
           id="path3874"
           inkscape:connector-curvature="0" /><path
           d="m 192.051,162.366 c -5.238,2.495 -10.416,5.03 -15.523,7.624 -2.502,0.241 -5.008,0.474 -7.517,0.71 5.227,-2.564 10.523,-5.068 15.881,-7.523 2.391,-0.261 4.776,-0.536 7.159,-0.811"
           style="fill:#3d6535;fill-opacity:1;fill-rule:evenodd;stroke:none"
           id="path3876"
           inkscape:connector-curvature="0" /><path
           d="m 143.559,188.261 c -4.071,2.483 -8.068,5.033 -11.994,7.642 -2.896,0.175 -5.798,0.341 -8.704,0.506 4.042,-2.596 8.154,-5.133 12.335,-7.604 2.791,-0.181 5.579,-0.358 8.363,-0.544"
           style="fill:#8a6065;fill-opacity:1;fill-rule:evenodd;stroke:none"
           id="path3878"
           inkscape:connector-curvature="0" /><path
           d="m 103.293,217.316 c -3.873,3.375 -7.616,6.859 -11.192,10.471 -3.332,0.17 -6.669,0.35 -10.016,0.529 3.717,-3.625 7.593,-7.122 11.598,-10.507 3.21,-0.168 6.412,-0.332 9.61,-0.493"
           style="fill:#637751;fill-opacity:1;fill-rule:evenodd;stroke:none"
           id="path3880"
           inkscape:connector-curvature="0" /><path
           d="m 70.701,253.875 c -2.732,4.146 -5.263,8.426 -7.554,12.836 -3.745,0.293 -7.501,0.596 -11.271,0.904 2.412,-4.471 5.061,-8.808 7.921,-12.999 3.645,-0.254 7.279,-0.499 10.904,-0.741"
           style="fill:#2b72c2;fill-opacity:1;fill-rule:evenodd;stroke:none"
           id="path3882"
           inkscape:connector-curvature="0" /><path
           d="m 51.454,298.646 c -1.14,5.081 -1.982,10.288 -2.516,15.593 -4.047,0.575 -8.11,1.165 -12.19,1.765 0.6,-5.42 1.51,-10.739 2.739,-15.918 4.004,-0.49 7.993,-0.973 11.967,-1.44"
           style="fill:#2c72ba;fill-opacity:1;fill-rule:evenodd;stroke:none"
           id="path3884"
           inkscape:connector-curvature="0" /><path
           d="m 50.224,352.403 c 0.962,6.013 2.275,12.095 3.924,18.22 -4.09,1.052 -8.2,2.134 -12.328,3.238 -1.685,-6.304 -3.028,-12.559 -3.997,-18.738 4.153,-0.927 8.286,-1.833 12.401,-2.72"
           style="fill:#c46e79;fill-opacity:1;fill-rule:evenodd;stroke:none"
           id="path3886"
           inkscape:connector-curvature="0" /><path
           d="m 71.003,413.799 c 3.357,6.628 7.054,13.242 11.073,19.82 -3.705,1.728 -7.427,3.49 -11.159,5.296 -4.211,-6.809 -8.094,-13.644 -11.599,-20.502 3.914,-1.569 7.805,-3.117 11.685,-4.614"
           style="fill:#86792d;fill-opacity:1;fill-rule:evenodd;stroke:none"
           id="path3888"
           inkscape:connector-curvature="0" /><path
           d="m 114.498,478.324 c 5.53,6.573 11.309,13.041 17.323,19.377 -2.806,2.475 -5.601,5.011 -8.395,7.598 -6.358,-6.576 -12.487,-13.266 -18.342,-20.078 3.14,-2.352 6.278,-4.648 9.414,-6.897"
           style="fill:#753fa3;fill-opacity:1;fill-rule:evenodd;stroke:none"
           id="path3890"
           inkscape:connector-curvature="0" /><path
           d="m 175.472,538.528 c 6.794,5.647 13.674,11.115 20.642,16.368 -1.486,3.112 -2.937,6.285 -4.357,9.515 -7.418,-5.407 -14.754,-11.031 -21.972,-16.874 1.868,-3.065 3.772,-6.062 5.687,-9.009"
           style="fill:#3a7344;fill-opacity:1;fill-rule:evenodd;stroke:none"
           id="path3892"
           inkscape:connector-curvature="0" /><path
           d="m 247.999,600.487 c -2.212,-1.235 -4.431,-2.495 -6.655,-3.779 0.386,-3.479 0.824,-6.905 1.306,-10.278 5.845,3.526 11.641,6.876 17.376,10.044 -0.043,1.33 -0.077,2.668 -0.103,4.013 z"
           style="fill:#39733e;fill-opacity:1;fill-rule:evenodd;stroke:none"
           id="path3894"
           inkscape:connector-curvature="0" /><path
           d="m 350.908,98.636 c -6.935,2.514 -13.828,4.972 -20.674,7.379 -1.763,0.79 -3.547,1.546 -5.339,2.298 6.946,-2.333 13.941,-4.694 20.977,-7.121 1.696,-0.827 3.378,-1.672 5.036,-2.556"
           style="fill:#922d37;fill-opacity:1;fill-rule:evenodd;stroke:none"
           id="path3896"
           inkscape:connector-curvature="0" /><path
           d="m 285.275,121.594 c -6.491,2.221 -12.937,4.434 -19.339,6.64 -2.11,0.543 -4.227,1.079 -6.354,1.594 6.51,-2.145 13.064,-4.291 19.66,-6.443 2.017,-0.593 4.032,-1.175 6.033,-1.791"
           style="fill:#5575c3;fill-opacity:1;fill-rule:evenodd;stroke:none"
           id="path3898"
           inkscape:connector-curvature="0" /><path
           d="m 223.794,142.995 c -6.088,2.186 -12.128,4.398 -18.124,6.628 -2.485,0.362 -4.975,0.725 -7.473,1.067 6.116,-2.187 12.276,-4.353 18.484,-6.484 2.377,-0.399 4.748,-0.8 7.113,-1.211"
           style="fill:#ac745f;fill-opacity:1;fill-rule:evenodd;stroke:none"
           id="path3900"
           inkscape:connector-curvature="0" /><path
           d="m 166.316,165.116 c -5.662,2.371 -11.264,4.798 -16.805,7.288 -2.911,0.242 -5.829,0.478 -8.754,0.708 5.681,-2.461 11.423,-4.855 17.219,-7.199 2.787,-0.257 5.566,-0.528 8.34,-0.797"
           style="fill:#d08094;fill-opacity:1;fill-rule:evenodd;stroke:none"
           id="path3902"
           inkscape:connector-curvature="0" /><path
           d="m 113.493,190.147 c -4.481,2.439 -8.897,4.944 -13.237,7.533 -3.379,0.186 -6.768,0.362 -10.163,0.553 4.476,-2.586 9.037,-5.073 13.647,-7.511 3.259,-0.189 6.51,-0.381 9.753,-0.575"
           style="fill:#cc6833;fill-opacity:1;fill-rule:evenodd;stroke:none"
           id="path3904"
           inkscape:connector-curvature="0" /><path
           d="m 68.676,219.111 c -4.369,3.417 -8.605,6.963 -12.689,10.642 -3.913,0.221 -7.841,0.445 -11.782,0.677 4.253,-3.712 8.657,-7.286 13.197,-10.718 3.77,-0.205 7.527,-0.401 11.274,-0.601"
           style="fill:#c81a95;fill-opacity:1;fill-rule:evenodd;stroke:none"
           id="path3906"
           inkscape:connector-curvature="0" /><path
           d="m 31.284,256.691 c -3.204,4.328 -6.192,8.818 -8.932,13.459 -4.449,0.403 -8.919,0.813 -13.409,1.234 2.894,-4.731 6.043,-9.298 9.417,-13.69 4.327,-0.34 8.635,-0.678 12.924,-1.003"
           style="fill:#5a76aa;fill-opacity:1;fill-rule:evenodd;stroke:none"
           id="path3908"
           inkscape:connector-curvature="0" /><path
           d="m -0.483,305.311 c 2.838,-0.394 5.667,-0.781 8.486,-1.164 -1.461,5.466 -2.601,11.093 -3.386,16.843 -1.697,0.277 -3.397,0.555 -5.1,0.836 z"
           style="fill:#2d5bb2;fill-opacity:1;fill-rule:evenodd;stroke:none"
           id="path3910"
           inkscape:connector-curvature="0" /><path
           d="m -0.483,364.155 c 1.839,-0.456 3.674,-0.908 5.504,-1.358 0.979,6.653 2.357,13.406 4.159,20.214 -3.206,0.94 -6.428,1.892 -9.663,2.863 z"
           style="fill:#cf7fb9;fill-opacity:1;fill-rule:evenodd;stroke:none"
           id="path3912"
           inkscape:connector-curvature="0" /><path
           d="m 28.378,431.448 c 3.924,7.496 8.278,14.982 13.031,22.431 -4.487,2.387 -9.009,4.819 -13.541,7.338 -5.019,-7.759 -9.589,-15.568 -13.71,-23.379 4.768,-2.187 9.513,-4.308 14.22,-6.39"
           style="fill:#2a714e;fill-opacity:1;fill-rule:evenodd;stroke:none"
           id="path3914"
           inkscape:connector-curvature="0" /><path
           d="m 80.424,504.708 c 6.743,7.493 13.82,14.84 21.181,22.044 -3.285,3.415 -6.543,6.936 -9.823,10.517 -7.851,-7.508 -15.387,-15.179 -22.562,-23.003 3.743,-3.264 7.478,-6.45 11.204,-9.558"
           style="fill:#3e738d;fill-opacity:1;fill-rule:evenodd;stroke:none"
           id="path3916"
           inkscape:connector-curvature="0" /><path
           d="m 171.33,600.487 c -7.376,-4.886 -14.679,-9.954 -21.889,-15.198 2,-4.226 4.038,-8.358 6.119,-12.393 8.445,6.334 17.009,12.437 25.696,18.24 -1.073,3.07 -2.122,6.186 -3.142,9.351 z"
           style="fill:#2f7240;fill-opacity:1;fill-rule:evenodd;stroke:none"
           id="path3918"
           inkscape:connector-curvature="0" /><path
           d="m 334.171,106.512 c -7.252,2.234 -14.457,4.428 -21.618,6.58 -1.865,0.671 -3.739,1.324 -5.623,1.961 7.25,-2.079 14.546,-4.199 21.887,-6.356 1.797,-0.712 3.586,-1.429 5.354,-2.185"
           style="fill:#a57922;fill-opacity:1;fill-rule:evenodd;stroke:none"
           id="path3920"
           inkscape:connector-curvature="0" /><path
           d="m 265.405,127.101 c -6.827,2.009 -13.613,4.016 -20.357,6.035 -2.18,0.46 -4.365,0.924 -6.562,1.355 6.849,-1.945 13.733,-3.911 20.658,-5.867 2.095,-0.495 4.183,-0.999 6.261,-1.523"
           style="fill:#a77cc5;fill-opacity:1;fill-rule:evenodd;stroke:none"
           id="path3922"
           inkscape:connector-curvature="0" /><path
           d="m 200.469,146.72 c -6.469,2.031 -12.9,4.087 -19.286,6.187 -2.545,0.304 -5.097,0.617 -7.655,0.91 6.51,-2.05 13.057,-4.073 19.643,-6.066 2.439,-0.335 4.872,-0.684 7.298,-1.031"
           style="fill:#e8544a;fill-opacity:1;fill-rule:evenodd;stroke:none"
           id="path3924"
           inkscape:connector-curvature="0" /><path
           d="m 139.003,167.589 c -6.107,2.273 -12.163,4.613 -18.164,7.019 -2.979,0.214 -5.966,0.424 -8.961,0.626 6.147,-2.386 12.346,-4.697 18.591,-6.949 2.853,-0.222 5.697,-0.46 8.534,-0.696"
           style="fill:#2b7141;fill-opacity:1;fill-rule:evenodd;stroke:none"
           id="path3926"
           inkscape:connector-curvature="0" /><path
           d="m 81.523,191.977 c -4.926,2.425 -9.801,4.914 -14.607,7.49 -3.474,0.183 -6.959,0.359 -10.455,0.544 4.954,-2.582 9.974,-5.073 15.049,-7.489 3.347,-0.177 6.686,-0.359 10.013,-0.545"
           style="fill:#397240;fill-opacity:1;fill-rule:evenodd;stroke:none"
           id="path3928"
           inkscape:connector-curvature="0" /><path
           d="m 31.616,221.118 c -4.936,3.494 -9.755,7.122 -14.407,10.924 -4.062,0.249 -8.142,0.505 -12.24,0.765 4.845,-3.842 9.852,-7.508 14.976,-11.035 3.907,-0.219 7.797,-0.432 11.671,-0.654"
           style="fill:#be1492;fill-opacity:1;fill-rule:evenodd;stroke:none"
           id="path3930"
           inkscape:connector-curvature="0" /><path
           d="m 43.354,538.103 c 8.255,8.64 16.926,17.113 25.986,25.382 -3.382,4.205 -6.773,8.507 -10.15,12.925 -9.648,-8.645 -18.904,-17.487 -27.666,-26.55 3.949,-4.026 7.893,-7.943 11.83,-11.757"
           style="fill:#f18399;fill-opacity:1;fill-rule:evenodd;stroke:none"
           id="path3932"
           inkscape:connector-curvature="0" /><path
           d="m 316.455,113.25 c -7.531,2.004 -15.021,3.954 -22.467,5.886 -1.947,0.576 -3.905,1.135 -5.872,1.676 7.529,-1.871 15.097,-3.77 22.712,-5.692 1.883,-0.619 3.76,-1.233 5.627,-1.87"
           style="fill:#c87e2f;fill-opacity:1;fill-rule:evenodd;stroke:none"
           id="path3934"
           inkscape:connector-curvature="0" /><path
           d="m 244.816,131.791 c -7.144,1.831 -14.254,3.663 -21.325,5.516 -2.25,0.386 -4.502,0.783 -6.765,1.151 7.174,-1.793 14.378,-3.589 21.619,-5.371 2.163,-0.426 4.32,-0.861 6.471,-1.296"
           style="fill:#8f60b6;fill-opacity:1;fill-rule:evenodd;stroke:none"
           id="path3936"
           inkscape:connector-curvature="0" /><path
           d="m 176.53,149.894 c -6.846,1.909 -13.664,3.841 -20.448,5.817 -2.612,0.268 -5.23,0.522 -7.856,0.78 6.906,-1.947 13.843,-3.849 20.81,-5.719 2.505,-0.288 5.003,-0.581 7.494,-0.878"
           style="fill:#576f9d;fill-opacity:1;fill-rule:evenodd;stroke:none"
           id="path3938"
           inkscape:connector-curvature="0" /><path
           d="m 111.017,169.748 c -6.569,2.196 -13.093,4.474 -19.577,6.816 -3.062,0.195 -6.134,0.377 -9.216,0.564 6.635,-2.336 13.315,-4.584 20.027,-6.772 2.932,-0.196 5.853,-0.412 8.766,-0.608"
           style="fill:#ce6f2c;fill-opacity:1;fill-rule:evenodd;stroke:none"
           id="path3940"
           inkscape:connector-curvature="0" /><path
           d="m 48.625,193.729 c -5.419,2.409 -10.788,4.906 -16.088,7.514 -3.596,0.181 -7.205,0.367 -10.829,0.554 5.467,-2.613 10.998,-5.116 16.571,-7.538 3.462,-0.174 6.91,-0.358 10.346,-0.53"
           style="fill:#997ba5;fill-opacity:1;fill-rule:evenodd;stroke:none"
           id="path3942"
           inkscape:connector-curvature="0" /><path
           d="m -0.483,600.487 v -15.995 c 1.499,-1.723 2.997,-3.429 4.493,-5.118 7.162,7.167 14.613,14.209 22.329,21.113 z"
           style="fill:#e10f92;fill-opacity:1;fill-rule:evenodd;stroke:none"
           id="path3944"
           inkscape:connector-curvature="0" /></g></g></g></svg>